<svg width="3000" height="2000" viewBox="0 0 3000 2000" fill="none" xmlns="http://www.w3.org/2000/svg">
<g clip-path="url(#clip0)">
<path d="M3000 0H0V2000H3000V0Z" fill="#2A3947"/>
<path fill-rule="evenodd" clip-rule="evenodd" d="M1380.3 1320.6H1143.7C1114.6 1320.6 1090.8 1344.4 1090.8 1373.5V1512.1H1433.3V1373.5C1433.3 1344.4 1409.4 1320.6 1380.3 1320.6Z" fill="#142635"/>
<path fill-rule="evenodd" clip-rule="evenodd" d="M1374.3 1508H1142.9C1139.8 1508 1137 1509.7 1135.5 1512.1H1381.7C1380.2 1509.6 1377.5 1508 1374.3 1508Z" fill="#FCD254"/>
<path fill-rule="evenodd" clip-rule="evenodd" d="M1374.3 1466.5H1142.9C1138.1 1466.5 1134.2 1470.4 1134.2 1475.2V1488.9C1134.2 1493.7 1138.1 1497.6 1142.9 1497.6H1374.3C1379.1 1497.6 1383 1493.7 1383 1488.9V1475.2C1383 1470.4 1379.1 1466.5 1374.3 1466.5Z" fill="#FCD254"/>
<path fill-rule="evenodd" clip-rule="evenodd" d="M1374.3 1424.9H1142.9C1138.1 1424.9 1134.2 1428.8 1134.2 1433.6V1447.3C1134.2 1452.1 1138.1 1456 1142.9 1456H1374.3C1379.1 1456 1383 1452.1 1383 1447.3V1433.6C1383 1428.9 1379.1 1424.9 1374.3 1424.9Z" fill="#FCD254"/>
<path fill-rule="evenodd" clip-rule="evenodd" d="M1692.5 785.5L1607 671.7C1598.7 660.7 1584.9 661.1 1576.3 672.5L1491.4 785.5H1485.3C1459.1 785.5 1437.6 807 1437.6 833.2V1106.1C1401.4 1107.5 1372.2 1137.5 1372.2 1174V1512.1H1723.2V792.4C1716 788 1707.6 785.5 1698.6 785.5H1692.5Z" fill="#142635"/>
<path fill-rule="evenodd" clip-rule="evenodd" d="M1575.2 1449.6H1530C1524.2 1449.6 1519.4 1454.4 1519.4 1460.2V1476.9C1519.4 1482.7 1524.2 1487.5 1530 1487.5H1575.2C1581 1487.5 1585.8 1482.7 1585.8 1476.9V1460.2C1585.7 1454.4 1581 1449.6 1575.2 1449.6Z" fill="#FCD254"/>
<path fill-rule="evenodd" clip-rule="evenodd" d="M1653.9 1449.6H1608.7C1602.9 1449.6 1598.1 1454.4 1598.1 1460.2V1476.9C1598.1 1482.7 1602.9 1487.5 1608.7 1487.5H1653.9C1659.7 1487.5 1664.5 1482.7 1664.5 1476.9V1460.2C1664.4 1454.4 1659.7 1449.6 1653.9 1449.6Z" fill="#FCD254"/>
<path fill-rule="evenodd" clip-rule="evenodd" d="M1496.5 1449.6H1451.3C1445.5 1449.6 1440.7 1454.4 1440.7 1460.2V1476.9C1440.7 1482.7 1445.5 1487.5 1451.3 1487.5H1496.5C1502.3 1487.5 1507.1 1482.7 1507.1 1476.9V1460.2C1507.1 1454.4 1502.3 1449.6 1496.5 1449.6Z" fill="#FCD254"/>
<path fill-rule="evenodd" clip-rule="evenodd" d="M1676.7 1460.2V1476.9C1676.7 1482.7 1681.5 1487.5 1687.3 1487.5H1723.1V1449.7H1687.3C1681.5 1449.6 1676.7 1454.4 1676.7 1460.2Z" fill="#FCD254"/>
<path fill-rule="evenodd" clip-rule="evenodd" d="M1440.7 1308.8V1325.5C1440.7 1331.3 1445.5 1336.1 1451.3 1336.1H1723.2V1298.3H1451.3C1445.4 1298.2 1440.7 1303 1440.7 1308.8Z" fill="#FCD254"/>
<path fill-rule="evenodd" clip-rule="evenodd" d="M1440.7 1409.8V1426.5C1440.7 1432.3 1445.5 1437.1 1451.3 1437.1H1723.2V1399.3H1451.3C1445.4 1399.2 1440.7 1403.9 1440.7 1409.8Z" fill="#FCD254"/>
<path fill-rule="evenodd" clip-rule="evenodd" d="M1440.7 1258.4V1275.1C1440.7 1280.9 1445.5 1285.7 1451.3 1285.7H1723.2V1247.9H1451.3C1445.4 1247.8 1440.7 1252.6 1440.7 1258.4Z" fill="#FCD254"/>
<path fill-rule="evenodd" clip-rule="evenodd" d="M1440.7 1359.3V1376C1440.7 1381.8 1445.5 1386.6 1451.3 1386.6H1723.2V1348.8H1451.3C1445.4 1348.7 1440.7 1353.5 1440.7 1359.3Z" fill="#FCD254"/>
<path fill-rule="evenodd" clip-rule="evenodd" d="M806 799.8V586.6C806 566.1 789.2 549.3 768.7 549.3H764L697.2 460.4C690.7 451.8 679.9 452.1 673.2 461L606.9 549.2H602.2C581.7 549.2 564.9 566 564.9 586.5V799.7C536.6 800.8 513.8 824.2 513.8 852.7V1512H857.2V852.8C857.1 824.3 834.3 800.9 806 799.8Z" fill="#142635"/>
<path fill-rule="evenodd" clip-rule="evenodd" d="M668.2 1049.2H641.5C634.3 1049.2 628.5 1055.1 628.5 1062.2C628.5 1069.4 634.4 1075.2 641.5 1075.2H668.2C675.4 1075.2 681.2 1069.3 681.2 1062.2C681.2 1055.1 675.4 1049.2 668.2 1049.2Z" fill="#FCD254"/>
<path fill-rule="evenodd" clip-rule="evenodd" d="M668.2 1001.1H641.5C634.3 1001.1 628.5 1007 628.5 1014.1C628.5 1021.3 634.4 1027.1 641.5 1027.1H668.2C675.4 1027.1 681.2 1021.2 681.2 1014.1C681.2 1006.9 675.4 1001.1 668.2 1001.1Z" fill="#FCD254"/>
<path fill-rule="evenodd" clip-rule="evenodd" d="M668.2 952.9H641.5C634.3 952.9 628.5 958.8 628.5 965.9C628.5 973.1 634.4 978.9 641.5 978.9H668.2C675.4 978.9 681.2 973 681.2 965.9C681.2 958.8 675.4 952.9 668.2 952.9Z" fill="#FCD254"/>
<path fill-rule="evenodd" clip-rule="evenodd" d="M607 1049.2H580.3C573.1 1049.2 567.3 1055.1 567.3 1062.2C567.3 1069.4 573.2 1075.2 580.3 1075.2H607C614.2 1075.2 620 1069.3 620 1062.2C620.1 1055.1 614.2 1049.2 607 1049.2Z" fill="#FCD254"/>
<path fill-rule="evenodd" clip-rule="evenodd" d="M607 904.8H580.3C573.1 904.8 567.3 910.7 567.3 917.8C567.3 925 573.2 930.8 580.3 930.8H607C614.2 930.8 620 924.9 620 917.8C620.1 910.7 614.2 904.8 607 904.8Z" fill="#FCD254"/>
<path fill-rule="evenodd" clip-rule="evenodd" d="M729.4 1049.2H702.7C695.5 1049.2 689.7 1055.1 689.7 1062.2C689.7 1069.4 695.6 1075.2 702.7 1075.2H729.4C736.6 1075.2 742.4 1069.3 742.4 1062.2C742.4 1055.1 736.5 1049.2 729.4 1049.2Z" fill="#FCD254"/>
<path fill-rule="evenodd" clip-rule="evenodd" d="M607 1001.1H580.3C573.1 1001.1 567.3 1007 567.3 1014.1C567.3 1021.3 573.2 1027.1 580.3 1027.1H607C614.2 1027.1 620 1021.2 620 1014.1C620.1 1006.9 614.2 1001.1 607 1001.1Z" fill="#FCD254"/>
<path fill-rule="evenodd" clip-rule="evenodd" d="M668.2 856.7H641.5C634.3 856.7 628.5 862.6 628.5 869.7C628.5 876.9 634.4 882.7 641.5 882.7H668.2C675.4 882.7 681.2 876.8 681.2 869.7C681.2 862.5 675.4 856.7 668.2 856.7Z" fill="#FCD254"/>
<path fill-rule="evenodd" clip-rule="evenodd" d="M729.4 1001.1H702.7C695.5 1001.1 689.7 1007 689.7 1014.1C689.7 1021.3 695.6 1027.1 702.7 1027.1H729.4C736.6 1027.1 742.4 1021.2 742.4 1014.1C742.4 1006.9 736.5 1001.1 729.4 1001.1Z" fill="#FCD254"/>
<path fill-rule="evenodd" clip-rule="evenodd" d="M790.5 1049.2H763.8C756.6 1049.2 750.8 1055.1 750.8 1062.2C750.8 1069.4 756.7 1075.2 763.8 1075.2H790.5C797.7 1075.2 803.5 1069.3 803.5 1062.2C803.6 1055.1 797.7 1049.2 790.5 1049.2Z" fill="#FCD254"/>
<path fill-rule="evenodd" clip-rule="evenodd" d="M790.5 904.8H763.8C756.6 904.8 750.8 910.7 750.8 917.8C750.8 925 756.7 930.8 763.8 930.8H790.5C797.7 930.8 803.5 924.9 803.5 917.8C803.6 910.7 797.7 904.8 790.5 904.8Z" fill="#FCD254"/>
<path fill-rule="evenodd" clip-rule="evenodd" d="M790.5 856.7H763.8C756.6 856.7 750.8 862.6 750.8 869.7C750.8 876.9 756.7 882.7 763.8 882.7H790.5C797.7 882.7 803.5 876.8 803.5 869.7C803.6 862.5 797.7 856.7 790.5 856.7Z" fill="#FCD254"/>
<path fill-rule="evenodd" clip-rule="evenodd" d="M790.5 1001.1H763.8C756.6 1001.1 750.8 1007 750.8 1014.1C750.8 1021.3 756.7 1027.1 763.8 1027.1H790.5C797.7 1027.1 803.5 1021.2 803.5 1014.1C803.6 1006.9 797.7 1001.1 790.5 1001.1Z" fill="#FCD254"/>
<path fill-rule="evenodd" clip-rule="evenodd" d="M729.4 952.9H702.7C695.5 952.9 689.7 958.8 689.7 965.9C689.7 973.1 695.6 978.9 702.7 978.9H729.4C736.6 978.9 742.4 973 742.4 965.9C742.4 958.8 736.5 952.9 729.4 952.9Z" fill="#FCD254"/>
<path fill-rule="evenodd" clip-rule="evenodd" d="M729.4 856.7H702.7C695.5 856.7 689.7 862.6 689.7 869.7C689.7 876.9 695.6 882.7 702.7 882.7H729.4C736.6 882.7 742.4 876.8 742.4 869.7C742.4 862.5 736.5 856.7 729.4 856.7Z" fill="#FCD254"/>
<path fill-rule="evenodd" clip-rule="evenodd" d="M729.4 904.8H702.7C695.5 904.8 689.7 910.7 689.7 917.8C689.7 925 695.6 930.8 702.7 930.8H729.4C736.6 930.8 742.4 924.9 742.4 917.8C742.4 910.7 736.5 904.8 729.4 904.8Z" fill="#FCD254"/>
<path fill-rule="evenodd" clip-rule="evenodd" d="M1070.8 1163.7H778.7C742.8 1163.7 713.4 1193.1 713.4 1229V1512.1H1136.1V1229C1136.1 1193.1 1106.7 1163.7 1070.8 1163.7Z" fill="#142635"/>
<path fill-rule="evenodd" clip-rule="evenodd" d="M903.5 1455H870.6C861.8 1455 854.5 1462.2 854.5 1471.1C854.5 1479.9 861.7 1487.2 870.6 1487.2H903.5C912.3 1487.2 919.6 1480 919.6 1471.1C919.6 1462.2 912.4 1455 903.5 1455Z" fill="#FCD254"/>
<path fill-rule="evenodd" clip-rule="evenodd" d="M828.2 1395.7H795.3C786.5 1395.7 779.2 1402.9 779.2 1411.8C779.2 1420.6 786.4 1427.9 795.3 1427.9H828.2C837 1427.9 844.3 1420.7 844.3 1411.8C844.3 1402.9 837.1 1395.7 828.2 1395.7Z" fill="#FCD254"/>
<path fill-rule="evenodd" clip-rule="evenodd" d="M978.8 1455H945.9C937.1 1455 929.8 1462.2 929.8 1471.1C929.8 1479.9 937 1487.2 945.9 1487.2H978.8C987.6 1487.2 994.9 1480 994.9 1471.1C994.9 1462.2 987.7 1455 978.8 1455Z" fill="#FCD254"/>
<path fill-rule="evenodd" clip-rule="evenodd" d="M903.5 1336.4H870.6C861.8 1336.4 854.5 1343.6 854.5 1352.5C854.5 1361.3 861.7 1368.6 870.6 1368.6H903.5C912.3 1368.6 919.6 1361.4 919.6 1352.5C919.6 1343.7 912.4 1336.4 903.5 1336.4Z" fill="#FCD254"/>
<path fill-rule="evenodd" clip-rule="evenodd" d="M978.8 1395.7H945.9C937.1 1395.7 929.8 1402.9 929.8 1411.8C929.8 1420.6 937 1427.9 945.9 1427.9H978.8C987.6 1427.9 994.9 1420.7 994.9 1411.8C994.9 1402.9 987.7 1395.7 978.8 1395.7Z" fill="#FCD254"/>
<path fill-rule="evenodd" clip-rule="evenodd" d="M1054.2 1395.7H1021.3C1012.5 1395.7 1005.2 1402.9 1005.2 1411.8C1005.2 1420.6 1012.4 1427.9 1021.3 1427.9H1054.2C1063 1427.9 1070.3 1420.7 1070.3 1411.8C1070.2 1402.9 1063 1395.7 1054.2 1395.7Z" fill="#FCD254"/>
<path fill-rule="evenodd" clip-rule="evenodd" d="M1054.2 1336.4H1021.3C1012.5 1336.4 1005.2 1343.6 1005.2 1352.5C1005.2 1361.3 1012.4 1368.6 1021.3 1368.6H1054.2C1063 1368.6 1070.3 1361.4 1070.3 1352.5C1070.2 1343.7 1063 1336.4 1054.2 1336.4Z" fill="#FCD254"/>
<path fill-rule="evenodd" clip-rule="evenodd" d="M1054.2 1455H1021.3C1012.5 1455 1005.2 1462.2 1005.2 1471.1C1005.2 1479.9 1012.4 1487.2 1021.3 1487.2H1054.2C1063 1487.2 1070.3 1480 1070.3 1471.1C1070.2 1462.2 1063 1455 1054.2 1455Z" fill="#FCD254"/>
<path fill-rule="evenodd" clip-rule="evenodd" d="M173.3 1318.8H0V1512.1H226.4V1371.9C226.4 1342.7 202.5 1318.8 173.3 1318.8Z" fill="#142635"/>
<path fill-rule="evenodd" clip-rule="evenodd" d="M37.5002 1507.3H10.8002C6.7002 1507.3 3.1002 1509.2 0.700195 1512.1H47.6002C45.2002 1509.2 41.5002 1507.3 37.5002 1507.3Z" fill="#FCD254"/>
<path fill-rule="evenodd" clip-rule="evenodd" d="M98.6998 1507.3H71.8998C67.7998 1507.3 64.1998 1509.2 61.7998 1512.1H108.7C106.3 1509.2 102.7 1507.3 98.6998 1507.3Z" fill="#FCD254"/>
<path fill-rule="evenodd" clip-rule="evenodd" d="M37.5 1459.2H10.8C6.3 1459.2 2.4 1461.5 0 1464.9V1479.6C2.4 1483 6.3 1485.3 10.8 1485.3H37.5C44.7 1485.3 50.5 1479.4 50.5 1472.3C50.5 1465.1 44.7 1459.2 37.5 1459.2Z" fill="#FCD254"/>
<path fill-rule="evenodd" clip-rule="evenodd" d="M159.8 1507.3H133.1C129 1507.3 125.4 1509.2 123 1512.1H169.9C167.5 1509.2 163.9 1507.3 159.8 1507.3Z" fill="#FCD254"/>
<path fill-rule="evenodd" clip-rule="evenodd" d="M159.8 1459.2H133.1C125.9 1459.2 120.1 1465.1 120.1 1472.2C120.1 1479.4 126 1485.2 133.1 1485.2H159.8C167 1485.2 172.8 1479.3 172.8 1472.2C172.9 1465.1 167 1459.2 159.8 1459.2Z" fill="#FCD254"/>
<path fill-rule="evenodd" clip-rule="evenodd" d="M580.7 1042.6H245.6C204.4 1042.6 170.6 1076.3 170.6 1117.6V1512.1H655.7V1117.6C655.7 1076.4 622 1042.6 580.7 1042.6Z" fill="#142635"/>
<path fill-rule="evenodd" clip-rule="evenodd" d="M572.3 1190.5H244.5C237.7 1190.5 232.2 1196 232.2 1202.8V1222.2C232.2 1229 237.7 1234.5 244.5 1234.5H572.3C579.1 1234.5 584.6 1229 584.6 1222.2V1202.8C584.6 1196 579 1190.5 572.3 1190.5Z" fill="#FCD254"/>
<path fill-rule="evenodd" clip-rule="evenodd" d="M572.3 1425.7H519.6C512.8 1425.7 507.3 1431.2 507.3 1438V1457.4C507.3 1464.2 512.8 1469.7 519.6 1469.7H572.3C579.1 1469.7 584.6 1464.2 584.6 1457.4V1438C584.6 1431.2 579 1425.7 572.3 1425.7Z" fill="#FCD254"/>
<path fill-rule="evenodd" clip-rule="evenodd" d="M297.2 1425.7H244.5C237.7 1425.7 232.2 1431.2 232.2 1438V1457.4C232.2 1464.2 237.7 1469.7 244.5 1469.7H297.2C304 1469.7 309.5 1464.2 309.5 1457.4V1438C309.5 1431.2 304 1425.7 297.2 1425.7Z" fill="#FCD254"/>
<path fill-rule="evenodd" clip-rule="evenodd" d="M480.6 1425.7H427.9C421.1 1425.7 415.6 1431.2 415.6 1438V1457.4C415.6 1464.2 421.1 1469.7 427.9 1469.7H480.6C487.4 1469.7 492.9 1464.2 492.9 1457.4V1438C492.9 1431.2 487.3 1425.7 480.6 1425.7Z" fill="#FCD254"/>
<path fill-rule="evenodd" clip-rule="evenodd" d="M572.3 1249.3H244.5C237.7 1249.3 232.2 1254.8 232.2 1261.6V1281C232.2 1287.8 237.7 1293.3 244.5 1293.3H572.3C579.1 1293.3 584.6 1287.8 584.6 1281V1261.6C584.6 1254.8 579 1249.3 572.3 1249.3Z" fill="#FCD254"/>
<path fill-rule="evenodd" clip-rule="evenodd" d="M572.3 1366.9H244.5C237.7 1366.9 232.2 1372.4 232.2 1379.2V1398.6C232.2 1405.4 237.7 1410.9 244.5 1410.9H572.3C579.1 1410.9 584.6 1405.4 584.6 1398.6V1379.2C584.6 1372.4 579 1366.9 572.3 1366.9Z" fill="#FCD254"/>
<path fill-rule="evenodd" clip-rule="evenodd" d="M1968.5 0H1032.1H888.5H0.700195V487.9H888.6V1512.2H0.700195V2000H3000V1512.1H2112.1V487.9H3000V0H2112.1H1968.5ZM1968.5 1512.1H1032.1V487.9H1968.5V1512.1Z" fill="#3C4D5C"/>
<path fill-rule="evenodd" clip-rule="evenodd" d="M664.6 1840C662.2 1849.6 660.9 1859.7 660.9 1870C660.9 1941.8 722.2 2000 797.9 2000C873.5 2000 934.9 1941.8 934.9 1870C934.9 1859.7 933.6 1849.6 931.2 1840H664.6Z" fill="white"/>
<path fill-rule="evenodd" clip-rule="evenodd" d="M903.8 1967.3H692C683 1967.3 675.6 1974.7 675.6 1983.7C675.6 1992.7 683 2000.1 692 2000.1H903.8C912.8 2000.1 920.2 1992.7 920.2 1983.7C920.2 1974.6 912.8 1967.3 903.8 1967.3Z" fill="white"/>
<path fill-rule="evenodd" clip-rule="evenodd" d="M2562.5 552.7C2433.9 552.7 2322.2 656.9 2313 785.5C2310.5 820.2 2315.7 853.1 2327.2 882.6L2289.7 1019.2L2424 992.4C2454.8 1009 2490.5 1018.4 2529.1 1018.4C2657.7 1018.4 2769.4 914.2 2778.6 785.6C2787.9 656.9 2691.1 552.7 2562.5 552.7Z" fill="#FCD254"/>
<path fill-rule="evenodd" clip-rule="evenodd" d="M2412.3 704C2416.1 704 2418.9 704.8 2421.4 707.7C2422.9 709.3 2425.6 709.5 2427.6 707.9C2429.5 706 2429.6 703.1 2427.9 701.4C2423.3 697.2 2418.8 695.4 2412.9 695.4C2397.5 695.4 2388.5 706.5 2387.6 719.5C2386.7 732.5 2393.2 743.5 2409.4 743.5C2415 743.5 2420.7 742.6 2425.7 738.3C2428.2 736 2427.9 733.5 2426.9 732C2425.8 730.4 2423 729.6 2420.8 731.2C2417.5 734 2413.8 735.5 2410 735.5C2399.6 735.5 2395.2 727.8 2395.8 719.5C2396.5 711.3 2401.9 704 2412.3 704Z" fill="white"/>
<path fill-rule="evenodd" clip-rule="evenodd" d="M2462 694.9C2449.6 694.9 2436.1 703 2434.9 719.5C2433.7 736 2446 744.2 2458.5 743.7C2470.3 743.7 2483.1 735.4 2484.3 719.5C2485.4 703.7 2473.7 695.5 2462 694.9ZM2475.4 719.6C2474.6 730.1 2466 735.5 2458.3 735.5C2450.8 735.5 2443 730.1 2443.7 719.6C2444.5 709 2453 703.7 2460.6 703.7C2468.3 703.7 2476.2 709 2475.4 719.6Z" fill="white"/>
<path fill-rule="evenodd" clip-rule="evenodd" d="M2529.4 696C2527.1 696 2525 698.4 2524.8 700.6L2522.9 726.7L2502.7 698.9C2501 697.2 2500.5 696.5 2498.1 696.5C2494.6 696.5 2493.9 698.9 2493.7 701.3L2491 738.4C2490.8 741.4 2492.8 743 2495.2 743C2497.6 743 2499.6 741.3 2499.8 738.4L2501.7 712.5L2521.9 740.7C2523.7 742.5 2524.8 743.1 2527.2 743.1C2529 742.6 2530.9 741.4 2531.1 738.5L2533.8 700.7C2534 698.4 2531.9 696 2529.4 696Z" fill="white"/>
<path fill-rule="evenodd" clip-rule="evenodd" d="M2605.6 699C2604.2 695.3 2599.3 695.4 2597.3 699L2575.3 736.7C2573.8 739.5 2574.9 741.9 2577 743.1C2579.4 743.6 2581.9 743.1 2583.1 740.8L2586.4 734.9H2611.2L2613.7 740.8C2615.7 746 2624.2 741.9 2621.8 736.6L2605.6 699ZM2591.2 726L2600.7 709.4L2607.1 726H2591.2Z" fill="white"/>
<path fill-rule="evenodd" clip-rule="evenodd" d="M2710.7 696.4H2679C2673.2 696.4 2672.5 705 2678.4 705H2690.2L2687.8 738.9C2687.4 744.9 2696.2 744.7 2696.7 738.9L2699.1 705H2710.2C2716.1 705 2716.7 696.4 2710.7 696.4Z" fill="white"/>
<path fill-rule="evenodd" clip-rule="evenodd" d="M2652.2 704C2656 704 2658.8 704.8 2661.3 707.7C2662.8 709.3 2665.5 709.5 2667.5 707.9C2669.4 706 2669.5 703.1 2667.8 701.4C2663.2 697.2 2658.7 695.4 2652.9 695.4C2637.5 695.4 2628.5 706.5 2627.6 719.5C2626.7 732.5 2633.2 743.5 2649.4 743.5C2655 743.5 2660.7 742.6 2665.7 738.3C2668.2 736 2667.9 733.5 2666.9 732C2665.8 730.4 2663 729.6 2660.8 731.2C2657.5 734 2653.8 735.5 2650 735.5C2639.6 735.5 2635.2 727.8 2635.8 719.5C2636.3 711.3 2641.8 704 2652.2 704Z" fill="white"/>
<path fill-rule="evenodd" clip-rule="evenodd" d="M2576.2 696.4H2544.4C2538.6 696.4 2537.9 705 2543.8 705H2555.6L2553.2 738.9C2552.8 744.9 2561.6 744.7 2562.1 738.9L2564.5 705H2575.6C2581.5 705 2582.1 696.4 2576.2 696.4Z" fill="white"/>
<path fill-rule="evenodd" clip-rule="evenodd" d="M2532.6 777.8L2496.3 822.6L2467.4 779.4C2465.1 776.6 2462.8 774.2 2458.6 774.2C2456.3 774.2 2449.7 776.7 2449.2 784.2L2443.3 866C2442.8 872.4 2446.6 876 2451.3 876C2456.5 876 2462 872.4 2462.5 866L2466.4 812.2L2485.9 842.7C2490.2 849.1 2496.8 849.1 2502.5 842.7L2528.8 812.2L2524.9 866C2524.4 872.4 2528.3 876 2533.5 876C2538.2 876 2542.5 872.4 2542.9 866L2548.8 784.2C2549.4 774.2 2537.8 771.9 2532.6 777.8Z" fill="white"/>
<path fill-rule="evenodd" clip-rule="evenodd" d="M2630.6 775.5H2578.4C2573.3 775.5 2569.1 779.3 2568.7 784.5L2562.8 867C2562.4 872.1 2566.1 876 2571.2 876H2625.8C2640 876 2640.4 857 2627.2 857H2582.9L2584.5 835.2H2621.1C2634 835.2 2635.4 816.2 2622.5 816.2H2585.9L2587.5 794.4H2629.3C2642.3 794.4 2643.9 775.5 2630.6 775.5Z" fill="white"/>
<path fill-rule="evenodd" clip-rule="evenodd" d="M2646.4 1329.4C2656.4 1305.6 2661.9 1279.5 2661.9 1252.2C2661.9 1141.7 2571.5 1051.3 2461 1051.3H2335.1C2224.6 1051.3 2134.2 1141.7 2134.2 1252.2C2134.2 1304.9 2154.8 1353 2188.3 1388.9C2145.5 1440.6 2116.9 1504.1 2110 1572.5L2066.7 2000H2694.5L2737.8 1572.5C2747.6 1474.8 2711.2 1387.1 2646.4 1329.4Z" fill="#2A3947"/>
<path fill-rule="evenodd" clip-rule="evenodd" d="M2646.4 1329.4C2656.4 1305.6 2661.9 1279.5 2661.9 1252.2C2661.9 1141.7 2571.5 1051.3 2461 1051.3H2335.1C2332.5 1051.3 2330 1051.4 2327.4 1051.5C2434.4 1055.6 2520.6 1144.3 2520.6 1252.3C2520.6 1279.6 2515.1 1305.7 2505.1 1329.5C2569.9 1387.2 2606.3 1474.9 2596.4 1572.6L2553.1 2000.1H2694.3L2737.6 1572.6C2747.6 1474.8 2711.2 1387.1 2646.4 1329.4Z" fill="#142635"/>
<path fill-rule="evenodd" clip-rule="evenodd" d="M2020.7 1347.2C1962.2 1321.7 1894.1 1348.5 1868.6 1407L1659.6 1884.8C1642.4 1924.2 1649 1968 1672.9 2000.1H1858.2C1863.4 1993.1 1867.9 1985.5 1871.5 1977.1L2080.5 1499.4C2106 1440.8 2079.2 1372.7 2020.7 1347.2Z" fill="#205F96"/>
<path fill-rule="evenodd" clip-rule="evenodd" d="M2046.3 1362.5C2003.8 1364.5 1964 1390.1 1945.8 1431.8L1736.8 1909.5C1723.7 1939.5 1724.4 1972 1736 2000H1858.2C1863.4 1993 1867.9 1985.4 1871.5 1977L2080.5 1499.3C2101.9 1450.1 2086.4 1394.2 2046.3 1362.5Z" fill="#144E7A"/>
<path fill-rule="evenodd" clip-rule="evenodd" d="M1765.5 1814.9H1363.7C1299.7 1814.9 1247.8 1866.8 1247.8 1930.8C1247.8 1956.7 1256.3 1980.6 1270.7 1999.9H1858.6C1873 1980.6 1881.5 1956.7 1881.5 1930.8C1881.4 1866.8 1829.5 1814.9 1765.5 1814.9Z" fill="#F5BBAA"/>
<path fill-rule="evenodd" clip-rule="evenodd" d="M2151.9 1329.5C1990.4 1329.5 1858.3 1461.6 1858.3 1623.1V2000H2445.6V1623.1C2445.5 1461.6 2313.4 1329.5 2151.9 1329.5Z" fill="#E7E5E4"/>
<path fill-rule="evenodd" clip-rule="evenodd" d="M2051.3 1347.3C1939 1388.6 1858.3 1496.9 1858.3 1623.1V2000H2248.1C2251 1967.9 2252.6 1934.9 2252.6 1901.3C2252.5 1652.9 2169.6 1439.6 2051.3 1347.3Z" fill="white"/>
<path fill-rule="evenodd" clip-rule="evenodd" d="M2189.1 1207.6H1920.1L1931.3 1395.1C1935.7 1469.1 1999.9 1529.6 2073.9 1529.6C2147.9 1529.6 2204.8 1469.1 2200.4 1395.1L2189.1 1207.6Z" fill="#F5BBAA"/>
<path fill-rule="evenodd" clip-rule="evenodd" d="M2189.1 1207.6H2074.6L2084.9 1380.4C2087.9 1430 2117.7 1473.6 2159.4 1496.9C2186.6 1472.2 2202.7 1435.6 2200.2 1395L2189.1 1207.6Z" fill="#F19C82"/>
<path d="M1827.9 1301C1881.36 1301 1924.7 1249.56 1924.7 1186.1C1924.7 1122.64 1881.36 1071.2 1827.9 1071.2C1774.44 1071.2 1731.1 1122.64 1731.1 1186.1C1731.1 1249.56 1774.44 1301 1827.9 1301Z" fill="#142635"/>
<path fill-rule="evenodd" clip-rule="evenodd" d="M1991.8 897.9C1883.3 897.9 1794.6 986.7 1794.6 1095.2V1222.5C1794.6 1331 1883.4 1419.8 1991.8 1419.8C2100.3 1419.8 2189 1331 2189 1222.5V1095.2C2189.1 986.6 2100.3 897.9 1991.8 897.9Z" fill="#F5BBAA"/>
<path fill-rule="evenodd" clip-rule="evenodd" d="M1991.8 831C1935.3 831 1883.9 854.1 1846.7 891.3C1813.8 924.2 1791.9 968.1 1787.3 1016.9C1818.4 945.7 1887.4 894.6 1968.4 889.4C1976 888.2 1983.9 887.5 1991.8 887.5C2032.7 887.5 2070 904.3 2097 931.3C2124 958.3 2140.8 995.5 2140.8 1036.4V1171.4C2140.8 1187 2153.5 1199.7 2169.1 1199.7C2184.7 1199.7 2197.4 1187 2197.4 1171.4V1036.4C2197.4 979.9 2174.3 928.5 2137.1 891.3C2099.7 854.1 2048.4 831 1991.8 831Z" fill="#2A3947"/>
<path fill-rule="evenodd" clip-rule="evenodd" d="M2384.8 1361.9C2360 1303.1 2292.3 1275.6 2233.6 1300.3C2174.8 1325.1 2147.3 1392.8 2172 1451.5L2393.6 1975.7C2397.3 1984.5 2402 1992.7 2407.5 2000H2592.5C2616.2 1968.3 2622.9 1925.2 2606.4 1886L2384.8 1361.9Z" fill="#205F96"/>
<path fill-rule="evenodd" clip-rule="evenodd" d="M2384.8 1361.9C2374.9 1338.5 2358.2 1320 2338 1307.8C2296 1338.7 2279 1395.4 2300.1 1445.6L2521.7 1969.7C2526.5 1981 2532.8 1991.1 2540.4 2000H2592.5C2616.2 1968.3 2622.9 1925.2 2606.4 1886L2384.8 1361.9Z" fill="#144E7A"/>
<path fill-rule="evenodd" clip-rule="evenodd" d="M1991.8 897.9C1971.2 897.9 1951.3 901.1 1932.6 907C2010.6 933.3 2067.2 1007.4 2067.2 1094V1221.3C2067.2 1309.2 2008.9 1384.1 1929.1 1409.4C1948.8 1416 1969.9 1419.7 1991.7 1419.7C2100.2 1419.7 2188.9 1330.9 2188.9 1222.4V1095.1C2189.1 986.6 2100.3 897.9 1991.8 897.9Z" fill="#F19C82"/>
<path fill-rule="evenodd" clip-rule="evenodd" d="M1982 888.9C1865.2 888.9 1769.7 984.5 1769.7 1101.2V1140H2194.4V1101.2C2194.4 984.5 2098.8 888.9 1982 888.9Z" fill="#205F96"/>
<path fill-rule="evenodd" clip-rule="evenodd" d="M1747.4 1035.3C1701.4 1035.3 1670.6 1082.2 1678.5 1140.1H1845C1837.1 1082.2 1793.4 1035.3 1747.4 1035.3Z" fill="#144E7A"/>
<path fill-rule="evenodd" clip-rule="evenodd" d="M1777.4 1041.8C1747.8 1056.6 1730.5 1095 1736.7 1140.1H1845C1838.8 1095.1 1811 1056.7 1777.4 1041.8Z" fill="#144E7A"/>
<path fill-rule="evenodd" clip-rule="evenodd" d="M1673.2 1041.8C1656.5 1061.1 1648.2 1087.7 1652.3 1117C1654.1 1129.8 1665.8 1140.1 1678.6 1140.1C1691.4 1140.1 1700.3 1129.7 1698.5 1117C1696.2 1100.4 1700.9 1085.3 1710.2 1074.5C1719.6 1063.6 1733.7 1056.9 1750.3 1056.9C1766.9 1056.9 1782.9 1063.6 1795.2 1074.5C1807.6 1085.4 1816.4 1100.4 1818.6 1117C1820.3 1129.8 1832.1 1140.1 1844.9 1140.1C1857.7 1140.1 1866.6 1129.7 1864.8 1117C1863.8 1109.5 1862 1102.2 1859.5 1095.1H1921.4V1010.7H1744C1714.7 1010.6 1689.8 1022.5 1673.2 1041.8Z" fill="#205F96"/>
<path fill-rule="evenodd" clip-rule="evenodd" d="M1687.2 1046.2C1678.8 1054.3 1672.5 1064.1 1668.9 1075.1C1665.4 1085.6 1664.4 1097.1 1666.4 1109.1C1667.4 1115.5 1673.5 1119.9 1679.9 1118.8C1686.3 1117.8 1690.7 1111.7 1689.6 1105.3C1688.3 1097.2 1688.9 1089.5 1691.2 1082.5C1693.6 1075.3 1697.9 1068.7 1703.6 1063.1C1708.3 1058.6 1708.4 1051.1 1703.8 1046.4C1699.4 1041.7 1691.9 1041.6 1687.2 1046.2Z" fill="#3674A9"/>
<path fill-rule="evenodd" clip-rule="evenodd" d="M2079.4 912.7C2027.8 939.5 1988.5 986.9 1972.4 1043.8C1914.5 1047.2 1868.4 1088.7 1866.2 1140H1964.4H2093.8H2194.3V1101.2C2194.4 1019.5 2147.6 948.2 2079.4 912.7Z" fill="#144E7A"/>
<path fill-rule="evenodd" clip-rule="evenodd" d="M2042.3 837.3C2029.8 852.6 2018.6 869.8 2008.9 888.5C2043 892.5 2073.8 908.1 2097 931.3C2124 958.3 2140.8 995.5 2140.8 1036.4V1171.4C2140.8 1187 2153.5 1199.7 2169.1 1199.7C2184.7 1199.7 2197.4 1187 2197.4 1171.4V1036.4C2197.4 979.9 2174.3 928.5 2137.1 891.3C2111.2 865.6 2078.7 846.6 2042.3 837.3Z" fill="#142635"/>
<path fill-rule="evenodd" clip-rule="evenodd" d="M2136.9 1242.5C2136.8 1236.7 2132 1232 2126.2 1232.1C2120.4 1232.2 2115.7 1237 2115.8 1242.8V1245.1C2115.8 1273.7 2101.6 1302.3 2078.7 1325.4C2055.3 1349 2022.9 1366.7 1987.2 1373.1C1980.7 1374.3 1974.4 1375 1968.3 1375.3C1962.1 1375.6 1955.9 1375.6 1949.8 1375.1C1944 1374.7 1938.9 1379 1938.5 1384.9C1938.1 1390.7 1942.4 1395.8 1948.3 1396.2C1955.2 1396.7 1962.2 1396.8 1969.4 1396.4C1976.7 1396 1983.9 1395.2 1990.9 1393.9C2031 1386.8 2067.4 1366.8 2093.7 1340.2C2120.5 1313.2 2137.1 1279.3 2137.1 1245V1244.9L2136.9 1242.5Z" fill="#142635"/>
<path d="M1944.8 1418.9C1961.7 1418.9 1975.4 1406.32 1975.4 1390.8C1975.4 1375.28 1961.7 1362.7 1944.8 1362.7C1927.9 1362.7 1914.2 1375.28 1914.2 1390.8C1914.2 1406.32 1927.9 1418.9 1944.8 1418.9Z" fill="#142635"/>
<path d="M1972.9 1360.3C1994.88 1360.3 2012.7 1342.48 2012.7 1320.5C2012.7 1298.52 1994.88 1280.7 1972.9 1280.7C1950.92 1280.7 1933.1 1298.52 1933.1 1320.5C1933.1 1342.48 1950.92 1360.3 1972.9 1360.3Z" fill="#612424"/>
<path fill-rule="evenodd" clip-rule="evenodd" d="M1972.9 1280.7C1958.4 1280.7 1945.7 1288.4 1938.7 1300H2007C2000.1 1288.4 1987.4 1280.7 1972.9 1280.7Z" fill="white"/>
<path fill-rule="evenodd" clip-rule="evenodd" d="M1981 1318.1C1963 1318.1 1947.7 1330.1 1942.8 1346.6C1950.1 1355 1960.9 1360.4 1972.9 1360.4C1990.9 1360.4 2006.2 1348.4 2011.1 1331.9C2003.8 1323.5 1993 1318.1 1981 1318.1Z" fill="#931C21"/>
<path fill-rule="evenodd" clip-rule="evenodd" d="M2119.4 1193.9H2000.3V1191.9C2000.3 1183.8 1997 1176.5 1991.7 1171.2C1986.4 1165.9 1979 1162.6 1971 1162.6H1919.5C1911.4 1162.6 1904.1 1165.9 1898.8 1171.2C1893.5 1176.5 1890.2 1183.9 1890.2 1191.9V1193.9H1880V1191.9C1880 1183.8 1876.7 1176.5 1871.4 1171.1C1866.1 1165.8 1858.7 1162.5 1850.6 1162.5H1799.1C1791 1162.5 1783.7 1165.8 1778.4 1171.1C1773.1 1176.4 1769.8 1183.8 1769.8 1191.8V1208.7C1769.8 1216.8 1773.1 1224.1 1778.4 1229.5C1783.7 1234.8 1791.1 1238.1 1799.2 1238.1H1850.7C1858.8 1238.1 1866.1 1234.8 1871.4 1229.5C1876.7 1224.2 1880 1216.8 1880 1208.8V1206.8H1890.1V1208.8C1890.1 1216.9 1893.4 1224.2 1898.7 1229.6C1904 1234.9 1911.4 1238.2 1919.5 1238.2H1971C1979.1 1238.2 1986.4 1234.9 1991.8 1229.6C1997.1 1224.3 2000.4 1216.9 2000.4 1208.8V1206.8H2119.5C2123.1 1206.8 2125.9 1203.9 2125.9 1200.4C2125.9 1196.8 2123 1193.9 2119.4 1193.9ZM1867.1 1200.3V1208.8C1867.1 1213.3 1865.2 1217.5 1862.3 1220.4C1859.3 1223.4 1855.2 1225.2 1850.7 1225.2H1799.2C1794.7 1225.2 1790.5 1223.3 1787.6 1220.4C1784.6 1217.4 1782.7 1213.3 1782.7 1208.8V1191.9C1782.7 1187.4 1784.6 1183.2 1787.5 1180.2C1790.5 1177.2 1794.6 1175.4 1799.2 1175.4H1850.7C1855.2 1175.4 1859.4 1177.3 1862.3 1180.3C1865.3 1183.3 1867.2 1187.4 1867.2 1191.9V1200.3H1867.1ZM1987.4 1200.3V1208.8C1987.4 1213.3 1985.5 1217.5 1982.5 1220.4C1979.5 1223.4 1975.4 1225.2 1970.9 1225.2H1919.4C1914.9 1225.2 1910.7 1223.3 1907.7 1220.4C1904.7 1217.4 1902.9 1213.3 1902.9 1208.8V1200.3V1191.8C1902.9 1187.3 1904.8 1183.1 1907.7 1180.1C1910.7 1177.1 1914.8 1175.3 1919.4 1175.3H1970.9C1975.4 1175.3 1979.6 1177.2 1982.6 1180.1C1985.6 1183.1 1987.4 1187.2 1987.4 1191.8V1200.3Z" fill="#142635"/>
<path d="M2163.3 1301C2216.76 1301 2260.1 1249.56 2260.1 1186.1C2260.1 1122.64 2216.76 1071.2 2163.3 1071.2C2109.84 1071.2 2066.5 1122.64 2066.5 1186.1C2066.5 1249.56 2109.84 1301 2163.3 1301Z" fill="#2A3947"/>
<path fill-rule="evenodd" clip-rule="evenodd" d="M2163.3 1071.2C2160.4 1071.2 2157.6 1071.4 2154.8 1071.6C2137.9 1092.3 2127.5 1120.5 2127.5 1151.6C2127.5 1215 2170.8 1266.5 2224.3 1266.5C2227.2 1266.5 2230 1266.3 2232.8 1266.1C2249.7 1245.4 2260.1 1217.2 2260.1 1186.1C2260.1 1122.6 2216.7 1071.2 2163.3 1071.2Z" fill="#142635"/>
<path fill-rule="evenodd" clip-rule="evenodd" d="M2191.2 1101.5C2171.6 1101.5 2160.4 1120.4 2166.2 1143.6C2172 1166.9 2192.6 1185.7 2212.2 1185.7C2231.8 1185.7 2243 1166.8 2237.2 1143.6C2231.4 1120.4 2210.8 1101.5 2191.2 1101.5Z" fill="#2A3947"/>
<path d="M1840.8 1205.8C1848.7 1205.8 1855.1 1199.4 1855.1 1191.5C1855.1 1183.6 1848.7 1177.2 1840.8 1177.2C1832.9 1177.2 1826.5 1183.6 1826.5 1191.5C1826.5 1199.4 1832.9 1205.8 1840.8 1205.8Z" fill="#142635"/>
<path d="M1958.3 1205.8C1966.2 1205.8 1972.6 1199.4 1972.6 1191.5C1972.6 1183.6 1966.2 1177.2 1958.3 1177.2C1950.4 1177.2 1944 1183.6 1944 1191.5C1944 1199.4 1950.4 1205.8 1958.3 1205.8Z" fill="#142635"/>
<path fill-rule="evenodd" clip-rule="evenodd" d="M2502.4 1318.4C2422.9 1328.1 2361.6 1400.6 2365.6 1480.4C2367.6 1520 2385.2 1553.9 2412.2 1576.9L2384.6 1921.8C2382.3 1950.9 2391 1978.3 2407.2 2000H2593C2605.6 1983.1 2613.8 1962.5 2615.5 1939.9L2653.8 1462.2C2654.5 1452.8 2654.1 1443.5 2652.7 1434.6C2643.3 1360.5 2578.3 1309.2 2502.4 1318.4Z" fill="#F5BBAA"/>
<path fill-rule="evenodd" clip-rule="evenodd" d="M2454.8 1429.3L2299.8 1461.5C2278.6 1465.8 2263.7 1486.5 2266.5 1507.7C2269.3 1528.8 2288.8 1542.5 2310 1538.1L2465 1505.9C2486.2 1501.5 2501.1 1480.9 2498.3 1459.7C2495.4 1438.6 2476 1425 2454.8 1429.3Z" fill="#F5BBAA"/>
<path fill-rule="evenodd" clip-rule="evenodd" d="M2580.6 1242.3C2559.7 1239.5 2539.4 1254.6 2535.1 1275.9L2520.3 1349.6C2516.1 1370.9 2529.6 1390.5 2550.4 1393.2C2571.3 1396 2591.6 1380.9 2595.9 1359.6L2610.7 1285.9C2614.9 1264.7 2601.4 1245.1 2580.6 1242.3Z" fill="#F5BBAA"/>
<path fill-rule="evenodd" clip-rule="evenodd" d="M2466.5 1346.3C2422 1367.7 2387 1409 2388.5 1438.4C2390 1467.9 2427.2 1474.4 2471.8 1452.9C2516.3 1431.5 2551.3 1390.2 2549.8 1360.8C2548.3 1331.4 2511 1324.9 2466.5 1346.3Z" fill="#F8CBC0"/>
<path fill-rule="evenodd" clip-rule="evenodd" d="M2519.7 1317.3C2568 1334.3 2600.8 1382.1 2596.6 1435.6L2558.3 1913.3C2555.4 1949.7 2536.1 1980.8 2508.1 1999.9H2592.9C2605.5 1983 2613.7 1962.4 2615.4 1939.8L2653.7 1462.1C2654.4 1452.7 2654 1443.4 2652.6 1434.5C2644.1 1366.2 2588 1317.2 2519.7 1317.3Z" fill="#F19C82"/>
<path fill-rule="evenodd" clip-rule="evenodd" d="M2612 1573.9H2419.5C2397.5 1573.9 2379.5 1591.9 2379.5 1613.9C2379.5 1635.9 2397.5 1653.9 2419.5 1653.9H2612C2634 1653.9 2652 1635.9 2652 1613.9C2652 1591.9 2634 1573.9 2612 1573.9Z" fill="#2A3947"/>
<path fill-rule="evenodd" clip-rule="evenodd" d="M2606.2 1553.9C2576.7 1553.9 2551.2 1582.1 2549.3 1616.9C2547.3 1651.7 2569.6 1679.9 2599.1 1679.9C2628.6 1679.9 2654.1 1651.7 2656 1616.9C2658 1582.1 2635.7 1553.9 2606.2 1553.9Z" fill="#E7E5E4"/>
<path fill-rule="evenodd" clip-rule="evenodd" d="M2616 1555C2591.9 1561.4 2572.8 1586.5 2571.2 1616.5C2569.5 1647.3 2586.8 1673 2611.2 1678.5C2635.3 1672.1 2654.4 1647 2656 1617C2657.8 1586.1 2640.5 1560.4 2616 1555Z" fill="#F0F1F1"/>
<path fill-rule="evenodd" clip-rule="evenodd" d="M2095.7 1920.3H1238C1224.9 1920.3 1214.2 1931 1214.2 1944.1V1976.2C1214.2 1989.2 1224.8 1999.9 1237.9 2000H2095.8C2108.8 1999.9 2119.5 1989.3 2119.5 1976.2V1944.1C2119.4 1931 2108.8 1920.3 2095.7 1920.3Z" fill="#CACACB"/>
<path fill-rule="evenodd" clip-rule="evenodd" d="M2073.9 1952.7H2016.2C2011.6 1952.7 2007.8 1956.5 2007.8 1961.1V1972.5C2007.8 1977.1 2011.6 1980.9 2016.2 1980.9H2073.9C2078.5 1980.9 2082.3 1977.1 2082.3 1972.5V1961.1C2082.3 1956.5 2078.5 1952.7 2073.9 1952.7Z" fill="#AFB0AF"/>
<path fill-rule="evenodd" clip-rule="evenodd" d="M1989.1 1952.7H1931.4C1926.8 1952.7 1923 1956.5 1923 1961.1V1972.5C1923 1977.1 1926.8 1980.9 1931.4 1980.9H1989.1C1993.7 1980.9 1997.5 1977.1 1997.5 1972.5V1961.1C1997.6 1956.5 1993.8 1952.7 1989.1 1952.7Z" fill="#AFB0AF"/>
<path d="M1849.2 1980.9C1856.99 1980.9 1863.3 1974.59 1863.3 1966.8C1863.3 1959.01 1856.99 1952.7 1849.2 1952.7C1841.41 1952.7 1835.1 1959.01 1835.1 1966.8C1835.1 1974.59 1841.41 1980.9 1849.2 1980.9Z" fill="#969697"/>
<path fill-rule="evenodd" clip-rule="evenodd" d="M1751.8 1526.4C1749.9 1470.4 1702.5 1424.6 1646.5 1424.6H951.9C895.9 1424.6 851.7 1470.4 853.6 1526.4L866.4 1898.2C868.3 1954.2 915.7 2000 971.6 2000H1666.5C1722.4 1999.9 1766.6 1954.2 1764.7 1898.2L1751.8 1526.4Z" fill="#CACACB"/>
<path fill-rule="evenodd" clip-rule="evenodd" d="M1706.4 1526.4C1704.5 1470.4 1657.1 1424.6 1601.1 1424.6H906.4C850.4 1424.6 806.2 1470.4 808.1 1526.4L820.9 1898.2C822.8 1954.2 870.2 2000 926.1 2000H1621C1676.9 1999.9 1721.1 1954.2 1719.2 1898.2L1706.4 1526.4Z" fill="#E7E5E4"/>
<path fill-rule="evenodd" clip-rule="evenodd" d="M1601 1424.6H906.4C850.4 1424.6 806.2 1470.4 808.1 1526.4L820.9 1898.2C822.8 1954.2 870.2 2000 926.2 2000H1307.5C1526.7 1912.3 1672.6 1755.9 1672.6 1577.5C1672.6 1526.8 1660.8 1477.9 1638.9 1431.8C1627 1427.1 1614.3 1424.6 1601 1424.6Z" fill="#EBEBEB"/>
<path fill-rule="evenodd" clip-rule="evenodd" d="M1332.4 1725.5C1329.9 1726 1327.3 1726.2 1324.6 1726.2C1301.7 1726.2 1283.2 1707.7 1283.2 1684.8C1283.2 1676 1285.9 1667.9 1290.6 1661.2C1281.7 1656.7 1271.9 1654.2 1261.6 1654.2C1223.8 1654.2 1194.3 1688.3 1195.8 1730.4C1197.2 1772.5 1229.1 1806.6 1266.9 1806.6C1304.7 1806.6 1334.2 1772.5 1332.7 1730.4C1332.6 1728.7 1332.5 1727.1 1332.4 1725.5Z" fill="#CACACB"/>
<path fill-rule="evenodd" clip-rule="evenodd" d="M1912.1 961.7H1854.4C1842.8 961.7 1832 971.2 1830.5 982.8C1829 994.4 1837.2 1003.9 1848.8 1003.9H1906.5C1918.1 1003.9 1928.9 994.4 1930.4 982.8C1931.9 971.2 1923.7 961.7 1912.1 961.7Z" fill="#EBEBEB"/>
<path d="M2041.8 1814.9C2102.55 1814.9 2151.8 1765.65 2151.8 1704.9C2151.8 1644.15 2102.55 1594.9 2041.8 1594.9C1981.05 1594.9 1931.8 1644.15 1931.8 1704.9C1931.8 1765.65 1981.05 1814.9 2041.8 1814.9Z" fill="#205F96"/>
</g>
<defs>
<clipPath id="clip0">
<rect width="3000" height="2000" rx="130" fill="white"/>
</clipPath>
</defs>
</svg>
