<svg width="84" height="84" viewBox="0 0 84 84" fill="none" xmlns="http://www.w3.org/2000/svg">
<rect width="84" height="84" fill="#D8E3E7"/>
<path d="M12.3467 74.8934L5.74878 0.887451H78.2513L71.6468 74.8823L41.9561 83.1136L12.3467 74.8934Z" fill="#136F82"/>
<path d="M42.0006 76.8221L65.9925 70.1703L71.6369 6.93799H42.0006V76.8221Z" fill="#52C4D3"/>
<path d="M42.0006 33.7502H54.0113L54.8408 24.4557H42.0006V15.3792H64.7607L64.5428 17.8145L62.3115 42.8268H42.0006V33.7502Z" fill="white"/>
<path d="M42.0545 57.3228L42.0145 57.3347L31.9062 54.6053L31.2598 47.3662H22.1498L23.4209 61.618L42.0131 66.7781L42.0545 66.7663V57.3228Z" fill="#EBEBEB"/>
<path d="M53.2396 42.4431L52.1463 54.5982L42.023 57.3308V66.7742L60.6303 61.6174L60.7668 60.0838L62.3458 42.4431H53.2396Z" fill="white"/>
<path d="M42.0315 15.3792V24.4557H20.1075L19.9258 22.4161L19.5123 17.8145L19.2951 15.3792H42.0315ZM42.0007 33.7515V42.8281H32.0198L31.838 40.7885L31.4239 36.1869L31.2074 33.7515H42.0007Z" fill="#EBEBEB"/>
</svg>
