<svg width="278" height="61" viewBox="0 0 278 61" fill="none" xmlns="http://www.w3.org/2000/svg">
<path d="M34.7578 36.7578H12.2578V60H0.539062V3.125H37.5703V12.6172H12.2578V27.3047H34.7578V36.7578ZM41.8672 38.4766C41.8672 34.2839 42.6745 30.5469 44.2891 27.2656C45.9036 23.9844 48.2214 21.4453 51.2422 19.6484C54.2891 17.8516 57.8177 16.9531 61.8281 16.9531C67.5312 16.9531 72.1797 18.6979 75.7734 22.1875C79.3932 25.6771 81.4115 30.4167 81.8281 36.4062L81.9062 39.2969C81.9062 45.7812 80.0964 50.9896 76.4766 54.9219C72.8568 58.8281 68 60.7812 61.9062 60.7812C55.8125 60.7812 50.9427 58.8281 47.2969 54.9219C43.6771 51.0156 41.8672 45.7031 41.8672 38.9844V38.4766ZM53.1562 39.2969C53.1562 43.3073 53.9115 46.3802 55.4219 48.5156C56.9323 50.625 59.0938 51.6797 61.9062 51.6797C64.6406 51.6797 66.776 50.638 68.3125 48.5547C69.849 46.4453 70.6172 43.0859 70.6172 38.4766C70.6172 34.5443 69.849 31.4974 68.3125 29.3359C66.776 27.1745 64.6146 26.0938 61.8281 26.0938C59.0677 26.0938 56.9323 27.1745 55.4219 29.3359C53.9115 31.4714 53.1562 34.7917 53.1562 39.2969ZM87.1016 38.4766C87.1016 34.2839 87.9089 30.5469 89.5234 27.2656C91.138 23.9844 93.4557 21.4453 96.4766 19.6484C99.5234 17.8516 103.052 16.9531 107.062 16.9531C112.766 16.9531 117.414 18.6979 121.008 22.1875C124.628 25.6771 126.646 30.4167 127.062 36.4062L127.141 39.2969C127.141 45.7812 125.331 50.9896 121.711 54.9219C118.091 58.8281 113.234 60.7812 107.141 60.7812C101.047 60.7812 96.1771 58.8281 92.5312 54.9219C88.9115 51.0156 87.1016 45.7031 87.1016 38.9844V38.4766ZM98.3906 39.2969C98.3906 43.3073 99.1458 46.3802 100.656 48.5156C102.167 50.625 104.328 51.6797 107.141 51.6797C109.875 51.6797 112.01 50.638 113.547 48.5547C115.083 46.4453 115.852 43.0859 115.852 38.4766C115.852 34.5443 115.083 31.4974 113.547 29.3359C112.01 27.1745 109.849 26.0938 107.062 26.0938C104.302 26.0938 102.167 27.1745 100.656 29.3359C99.1458 31.4714 98.3906 34.7917 98.3906 39.2969ZM132.336 38.5547C132.336 31.9661 133.807 26.7188 136.75 22.8125C139.719 18.9062 143.768 16.9531 148.898 16.9531C153.013 16.9531 156.411 18.4896 159.094 21.5625V0H170.422V60H160.227L159.68 55.5078C156.867 59.0234 153.247 60.7812 148.82 60.7812C143.846 60.7812 139.849 58.8281 136.828 54.9219C133.833 50.9896 132.336 45.5339 132.336 38.5547ZM143.625 39.375C143.625 43.3333 144.315 46.3672 145.695 48.4766C147.076 50.5859 149.081 51.6406 151.711 51.6406C155.201 51.6406 157.661 50.1693 159.094 47.2266V30.5469C157.688 27.6042 155.253 26.1328 151.789 26.1328C146.346 26.1328 143.625 30.5469 143.625 39.375ZM191.086 60H179.758V17.7344H191.086V60ZM179.094 6.79688C179.094 5.10417 179.654 3.71094 180.773 2.61719C181.919 1.52344 183.469 0.976562 185.422 0.976562C187.349 0.976562 188.885 1.52344 190.031 2.61719C191.177 3.71094 191.75 5.10417 191.75 6.79688C191.75 8.51562 191.164 9.92188 189.992 11.0156C188.846 12.1094 187.323 12.6562 185.422 12.6562C183.521 12.6562 181.984 12.1094 180.812 11.0156C179.667 9.92188 179.094 8.51562 179.094 6.79688ZM219.875 60.7812C213.677 60.7812 208.625 58.8802 204.719 55.0781C200.839 51.276 198.898 46.2109 198.898 39.8828V38.7891C198.898 34.5443 199.719 30.7552 201.359 27.4219C203 24.0625 205.318 21.4844 208.312 19.6875C211.333 17.8646 214.771 16.9531 218.625 16.9531C224.406 16.9531 228.951 18.776 232.258 22.4219C235.591 26.0677 237.258 31.237 237.258 37.9297V42.5391H210.344C210.708 45.2995 211.802 47.513 213.625 49.1797C215.474 50.8464 217.805 51.6797 220.617 51.6797C224.966 51.6797 228.365 50.1042 230.812 46.9531L236.359 53.1641C234.667 55.5599 232.375 57.4349 229.484 58.7891C226.594 60.1172 223.391 60.7812 219.875 60.7812ZM218.586 26.0938C216.346 26.0938 214.523 26.849 213.117 28.3594C211.737 29.8698 210.852 32.0312 210.461 34.8438H226.164V33.9453C226.112 31.4453 225.435 29.5182 224.133 28.1641C222.831 26.7839 220.982 26.0938 218.586 26.0938ZM266.594 48.3203C266.594 46.9401 265.904 45.8594 264.523 45.0781C263.169 44.2708 260.982 43.5547 257.961 42.9297C247.909 40.8203 242.883 36.5495 242.883 30.1172C242.883 26.3672 244.432 23.2422 247.531 20.7422C250.656 18.2161 254.732 16.9531 259.758 16.9531C265.122 16.9531 269.406 18.2161 272.609 20.7422C275.839 23.2682 277.453 26.5495 277.453 30.5859H266.164C266.164 28.9714 265.643 27.6432 264.602 26.6016C263.56 25.5339 261.932 25 259.719 25C257.818 25 256.346 25.4297 255.305 26.2891C254.263 27.1484 253.742 28.2422 253.742 29.5703C253.742 30.8203 254.328 31.8359 255.5 32.6172C256.698 33.3724 258.703 34.0365 261.516 34.6094C264.328 35.1562 266.698 35.7812 268.625 36.4844C274.589 38.6719 277.57 42.4609 277.57 47.8516C277.57 51.7057 275.917 54.8307 272.609 57.2266C269.302 59.5964 265.031 60.7812 259.797 60.7812C256.255 60.7812 253.104 60.1562 250.344 58.9062C247.609 57.6302 245.461 55.8984 243.898 53.7109C242.336 51.4974 241.555 49.1146 241.555 46.5625H252.258C252.362 48.5677 253.104 50.1042 254.484 51.1719C255.865 52.2396 257.714 52.7734 260.031 52.7734C262.193 52.7734 263.82 52.3698 264.914 51.5625C266.034 50.7292 266.594 49.6484 266.594 48.3203Z" fill="url(#paint0_linear)"/>
<defs>
<linearGradient id="paint0_linear" x1="138" y1="-14" x2="138" y2="80" gradientUnits="userSpaceOnUse">
<stop stop-color="#D71919"/>
<stop offset="0.9999" stop-color="#292626" stop-opacity="0.0677083"/>
<stop offset="1" stop-color="#D71919" stop-opacity="0"/>
</linearGradient>
</defs>
</svg>
