<svg width="29" height="29" viewBox="0 0 29 29" fill="none" xmlns="http://www.w3.org/2000/svg">
<g clip-path="url(#clip0)">
<path fill-rule="evenodd" clip-rule="evenodd" d="M14.5 0C22.5084 0 29 6.6554 29 14.8667C29 21.4338 24.8501 27.0047 19.0921 28.9724C18.357 29.1188 18.096 28.6546 18.096 28.2587C18.096 27.7686 18.1134 26.1679 18.1134 24.1785C18.1134 22.7923 17.6494 21.8875 17.1289 21.4264C20.358 21.0581 23.751 19.8009 23.751 14.0908C23.751 12.4668 23.1884 11.1415 22.2575 10.1004C22.4083 9.72489 22.9056 8.21273 22.1154 6.16533C22.1154 6.16533 20.9003 5.76697 18.1322 7.68967C16.9496 7.36002 15.7278 7.19144 14.5 7.18911C13.2732 7.19133 12.0523 7.35992 10.8707 7.68967C8.0997 5.76697 6.8817 6.16533 6.8817 6.16533C6.09435 8.21273 6.5917 9.72489 6.74105 10.1004C5.8145 11.1415 5.24755 12.4668 5.24755 14.0908C5.24755 19.7864 8.6333 21.0629 11.8538 21.4385C11.4391 21.8097 11.0635 22.4645 10.933 23.4259C10.1065 23.8058 8.0069 24.4632 6.7135 22.1911C6.7135 22.1911 5.94645 20.7627 4.49065 20.6583C4.49065 20.6583 3.0769 20.6395 4.39205 21.5617C4.39205 21.5617 5.3418 22.0184 6.00155 23.7367C6.00155 23.7367 6.85271 26.3901 10.8866 25.4911C10.8939 26.7338 10.9069 27.9049 10.9069 28.2587C10.9069 28.6517 10.6401 29.1116 9.91655 28.9738C4.15425 27.0091 0 21.4352 0 14.8667C0 6.6554 6.4931 0 14.5 0Z" fill="#F9F7F7"/>
</g>
<defs>
<clipPath id="clip0">
<rect width="29" height="29" fill="white"/>
</clipPath>
</defs>
</svg>
