<svg width="76" height="84" viewBox="0 0 76 84" fill="none" xmlns="http://www.w3.org/2000/svg">
<path d="M75.5416 0.041626H0.458313L7.08331 75.125L38 83.9583L68.9166 75.125L75.5416 0.041626Z" fill="#136F82"/>
<path d="M38 6.66663V77.1125L62.7333 70.0458L68.2542 6.66663H38Z" fill="#52C4D3"/>
<path d="M38 44.2084V35.375H56.9917L55.4458 60.7709L38 66.5125V57.2375L47.0542 54.1459L47.7167 44.2084H38ZM57.6542 26.5417L58.3167 17.7084H38V26.5417H57.6542Z" fill="white"/>
<path d="M38 57.2375V66.5125L20.5542 60.7709L19.6709 48.625H28.5042L28.9459 54.1459L38 57.2375ZM27.1792 26.5417H38V17.7084H17.9042L19.45 44.2084H38V35.375H27.8417L27.1792 26.5417Z" fill="#EEEEEE"/>
</svg>
