<svg width="29" height="29" viewBox="0 0 29 29" fill="none" xmlns="http://www.w3.org/2000/svg">
<path d="M26.2587 0H2.74129C1.22732 0 0 1.22732 0 2.74129V26.2587C0 27.7727 1.22732 29 2.74129 29H26.2587C27.7727 29 29 27.7727 29 26.2587V2.74129C29 1.22732 27.7727 0 26.2587 0Z" fill="#379AD0"/>
<path fill-rule="evenodd" clip-rule="evenodd" d="M5.62689 14.7164V23.3731H9.81097V13.995V11.5423H5.62689V14.7164Z" fill="#FEFEFE"/>
<path fill-rule="evenodd" clip-rule="evenodd" d="M7.79107 5.62689C6.63684 5.62689 5.62689 6.63684 5.62689 7.79107C5.62689 8.80102 6.63684 9.81097 7.79107 9.81097C8.80102 9.81097 9.81097 8.80102 9.81097 7.79107C9.81097 6.63684 8.80102 5.62689 7.79107 5.62689ZM23.2289 15.1493C22.9403 12.9851 21.9304 11.5423 18.9005 11.5423C17.1692 11.5423 16.015 12.2637 15.4378 13.1294V11.5423H12.1194V13.8508V23.3732H15.5821V17.4577C15.5821 16.015 15.8707 14.4279 17.7463 14.4279C19.6219 14.4279 19.7662 16.3035 19.7662 17.602V23.3732H23.3732V16.8806C23.3732 16.3035 23.3732 15.7264 23.2289 15.1493Z" fill="#FEFEFE"/>
</svg>
