<svg width="29" height="29" viewBox="0 0 29 29" fill="none" xmlns="http://www.w3.org/2000/svg">
<path d="M22.2333 0H6.76667C3.02954 0 0 3.02954 0 6.76667V22.2333C0 25.9705 3.02954 29 6.76667 29H22.2333C25.9705 29 29 25.9705 29 22.2333V6.76667C29 3.02954 25.9705 0 22.2333 0Z" fill="url(#paint0_linear)"/>
<path fill-rule="evenodd" clip-rule="evenodd" d="M6.0692 20.533L11.1916 15.2284L12.4313 16.4766C12.7134 16.7615 13.0491 16.9876 13.4192 17.1419C13.7892 17.2963 14.1861 17.3757 14.587 17.3757C14.9879 17.3757 15.3848 17.2963 15.7548 17.1419C16.1248 16.9876 16.4606 16.7615 16.7427 16.4766L17.864 15.3475L22.8776 20.5393C22.7976 20.5562 22.7145 20.5649 22.6294 20.5649H6.34615C6.25094 20.5649 6.15814 20.5538 6.0692 20.533ZM23.8056 9.36435C23.8266 9.45377 23.8377 9.54681 23.8377 9.64251V19.3565C23.8377 19.6683 23.7196 19.9525 23.526 20.1668L18.3746 14.833L23.8054 9.36411L23.8056 9.36435ZM5.16199 19.5977V9.88418C5.16199 9.67441 5.2154 9.47697 5.3094 9.3049L10.6807 14.7139L5.43314 20.1478C5.29677 19.9908 5.20335 19.8012 5.16199 19.5975V19.5977ZM23.3998 8.71161L16.2373 15.8739C15.2936 16.8178 13.7634 16.8178 12.8197 15.8739L5.62115 8.67584C5.82295 8.52432 6.07404 8.43442 6.34615 8.43442H22.6292C22.9105 8.434 23.1831 8.53216 23.3996 8.71185L23.3998 8.71161Z" fill="white"/>
<defs>
<linearGradient id="paint0_linear" x1="14.5" y1="0" x2="14.5" y2="29" gradientUnits="userSpaceOnUse">
<stop stop-color="#008EE7"/>
<stop offset="1" stop-color="#00D6FA"/>
</linearGradient>
</defs>
</svg>
