<svg width="77" height="77" viewBox="0 0 77 77" fill="none" xmlns="http://www.w3.org/2000/svg">
<path d="M35.9812 0.0601305C35.8158 0.0751681 35.2895 0.1278 34.8158 0.165394C23.891 1.15036 13.6579 7.04509 7.17672 16.1052C3.5677 21.1428 1.25943 26.8571 0.387246 32.9098C0.0789758 35.0225 0.0413818 35.6466 0.0413818 38.5113C0.0413818 41.3759 0.0789758 42 0.387246 44.1128C2.47747 58.5564 12.7557 70.6917 26.6955 75.188C29.1918 75.9925 31.8233 76.5413 34.8158 76.8722C35.9812 77 41.0188 77 42.1842 76.8722C47.3497 76.3007 51.7256 75.0225 56.0414 72.8195C56.703 72.4812 56.8309 72.391 56.7406 72.3158C56.6805 72.2707 53.8609 68.4887 50.4775 63.9173L44.3271 55.609L36.6203 44.203C32.3797 37.9323 28.891 32.8045 28.8609 32.8045C28.8309 32.797 28.8008 37.8646 28.7857 44.0526C28.7632 54.8872 28.7557 55.3233 28.6203 55.5789C28.4248 55.9474 28.2745 56.0977 27.9587 56.2631C27.7181 56.3834 27.5075 56.406 26.3722 56.406H25.0715L24.7256 56.188C24.5 56.0451 24.3346 55.8571 24.2218 55.6391L24.0639 55.3007L24.079 40.2255L24.1015 25.1428L24.3346 24.8496C24.4549 24.6917 24.7106 24.4887 24.891 24.391C25.1993 24.2406 25.3196 24.2255 26.6203 24.2255C28.1542 24.2255 28.4098 24.2857 28.8083 24.7218C28.9211 24.8421 33.094 31.1278 38.0865 38.6992C43.079 46.2707 49.906 56.609 53.2594 61.6842L59.3496 70.9098L59.6579 70.7068C62.3872 68.9323 65.2745 66.406 67.5602 63.7744C72.4248 58.188 75.5602 51.3759 76.6128 44.1128C76.9211 42 76.9587 41.3759 76.9587 38.5113C76.9587 35.6466 76.9211 35.0225 76.6128 32.9098C74.5226 18.4661 64.2444 6.33081 50.3045 1.83457C47.8459 1.03757 45.2294 0.488702 42.297 0.157875C41.5752 0.0826869 36.6053 -1.99042e-05 35.9812 0.0601305ZM51.7256 23.3233C52.0865 23.5037 52.3797 23.8496 52.485 24.2105C52.5451 24.406 52.5602 28.5864 52.5451 38.0075L52.5226 51.5263L50.1391 47.8722L47.7481 44.218V34.391C47.7481 28.0376 47.7782 24.4661 47.8233 24.2932C47.9436 23.8722 48.2068 23.5413 48.5677 23.3458C48.876 23.188 48.9888 23.1729 50.1692 23.1729C51.282 23.1729 51.4775 23.188 51.7256 23.3233Z" fill="black"/>
<path d="M58.9737 71.0753C58.7105 71.2407 58.6278 71.3534 58.8609 71.2256C59.0263 71.1279 59.297 70.9249 59.2519 70.9174C59.2293 70.9174 59.1015 70.9925 58.9737 71.0753ZM58.4549 71.4136C58.3196 71.5189 58.3196 71.5264 58.485 71.4437C58.5752 71.3986 58.6504 71.3459 58.6504 71.3309C58.6504 71.2707 58.6128 71.2858 58.4549 71.4136ZM58.079 71.6392C57.9436 71.7444 57.9436 71.7519 58.109 71.6692C58.1993 71.6241 58.2745 71.5715 58.2745 71.5565C58.2745 71.4963 58.2369 71.5113 58.079 71.6392ZM57.703 71.8647C57.5677 71.97 57.5677 71.9775 57.7331 71.8948C57.8233 71.8497 57.8985 71.7971 57.8985 71.782C57.8985 71.7219 57.8609 71.7369 57.703 71.8647ZM57.1316 72.1655C56.8459 72.3159 56.8609 72.376 57.1466 72.2331C57.2745 72.1655 57.3722 72.0978 57.3722 72.0828C57.3722 72.0301 57.3647 72.0377 57.1316 72.1655Z" fill="black"/>
</svg>
