<svg width="73" height="72" viewBox="0 0 73 72" fill="none" xmlns="http://www.w3.org/2000/svg">
<g clip-path="url(#clip0)">
<path d="M3.04164 3.0835H69.9584V68.9162H3.04164V3.0835Z" fill="url(#paint0_radial)"/>
<path d="M3.04163 3.08479H69.9584V68.9175H3.04163V3.08479ZM0 71.9939H73V0.00854492H0V71.9939ZM49.2142 29.5409C46.8112 29.5409 45.9901 30.7714 45.9901 31.7866C45.9901 32.894 46.5375 33.6631 49.7617 35.3551C54.5371 37.6931 56.0276 39.9388 56.0276 43.2305C56.0276 48.1525 52.3167 50.7981 47.2979 50.7981C44.6517 50.7981 42.3704 50.2443 41.0625 49.4754C40.8496 49.3831 40.8192 49.2293 40.8192 48.9831V44.4609C40.8192 44.1533 40.9713 44.0609 41.1843 44.2149C43.1005 45.4762 45.2905 46.0299 47.2979 46.0299C49.7009 46.0299 50.7046 45.0147 50.7046 43.6303C50.7046 42.5229 50.005 41.5385 46.9329 39.9388C42.6137 37.8469 40.8192 35.7243 40.8192 32.1866C40.8192 28.2181 43.8914 24.9265 49.2142 24.9265C51.83 24.9265 53.655 25.3265 54.6588 25.7879C54.9021 25.9417 54.9629 26.1877 54.9629 26.403V30.6175C54.9629 30.8636 54.8108 31.0175 54.5066 30.9251C53.1683 30.064 51.1912 29.5409 49.2142 29.5409ZM23.0558 33.2017C23.7554 33.2632 24.303 33.2632 25.5196 33.2632C29.0785 33.2632 32.4242 32.002 32.4242 27.1107C32.4242 23.2039 30.0213 21.235 25.9759 21.235C24.7593 21.235 23.6033 21.2965 23.0558 21.3272V33.2017ZM17.6417 16.8666C17.6417 16.6513 18.0676 16.4974 18.3108 16.4974C20.2576 16.4051 23.1472 16.3436 26.1584 16.3436C34.5838 16.3436 37.8687 21.0195 37.8687 26.9876C37.8687 34.8013 32.272 38.1545 25.3979 38.1545C24.2421 38.1545 23.8468 38.093 23.0254 38.093V49.906C23.0254 50.1521 22.9342 50.2751 22.6604 50.2751H18.0067C17.7634 50.2751 17.6416 50.1828 17.6416 49.906V16.8666H17.6417Z" fill="#31C5F0"/>
</g>
<defs>
<radialGradient id="paint0_radial" cx="0" cy="0" r="1" gradientUnits="userSpaceOnUse" gradientTransform="translate(25.0808 17.8367) scale(50.8567 49.799)">
<stop stop-color="#34364E" stop-opacity="0.98"/>
<stop offset="1" stop-color="#0C0824"/>
</radialGradient>
<clipPath id="clip0">
<rect width="73" height="72" fill="white"/>
</clipPath>
</defs>
</svg>
