<svg width="86" height="77" viewBox="0 0 86 77" fill="none" xmlns="http://www.w3.org/2000/svg">
<path d="M0.253326 38.4163C0.253326 44.8492 6.55626 50.8542 16.4929 54.2392C14.5086 64.1946 16.1375 72.219 21.5774 75.3456C27.1689 78.5595 35.4991 76.3348 43.4057 69.4467C51.1128 76.0566 58.9019 78.6579 64.3371 75.5223C69.9235 72.2994 71.6223 63.7309 69.5832 53.4645C79.933 50.0544 85.7223 44.9339 85.7223 38.4163C85.7223 32.1328 79.408 26.6969 69.6051 23.3337C71.8003 12.6431 69.9403 4.81354 64.275 1.55778C58.8132 -1.58114 50.9334 1.1547 43.1131 7.9374C34.9771 0.738232 27.1752 -1.45962 21.5159 1.80518C16.0592 4.95315 14.5022 13.1235 16.4929 23.2631C6.89151 26.5992 0.253326 32.1583 0.253326 38.4163Z" fill="white"/>
<path d="M67.529 26.6734C66.7211 26.3972 65.9063 26.1414 65.0855 25.9061C65.2216 25.3548 65.3475 24.8011 65.4631 24.2452C67.3126 15.2972 66.1033 8.08862 61.9735 5.71568C58.014 3.43983 51.538 5.81277 44.9976 11.485C44.3531 12.0452 43.7229 12.6215 43.1077 13.2135C42.6957 12.8199 42.2764 12.4339 41.85 12.0558C34.9955 5.9902 28.1248 3.43447 23.9993 5.81444C20.0435 8.09665 18.8718 14.8737 20.537 23.3537C20.7027 24.1935 20.8897 25.0289 21.098 25.8592C20.1258 26.1344 19.1869 26.4277 18.2887 26.7397C10.2527 29.5318 5.12045 33.9081 5.12045 38.447C5.12045 43.1353 10.6296 47.8377 19.0001 50.6887C19.6789 50.9188 20.3632 51.132 21.0526 51.3281C20.8287 52.2227 20.6298 53.1232 20.4564 54.0288C18.8688 62.3616 20.1087 68.9779 24.0541 71.246C28.1292 73.5878 34.9686 71.1807 41.6286 65.379C42.155 64.9203 42.6834 64.4339 43.2125 63.924C43.8789 64.5648 44.5631 65.1869 45.2643 65.7897C51.7154 71.322 58.0865 73.556 62.0286 71.2818C66.1 68.933 67.4228 61.8252 65.7049 53.1775C65.5739 52.5169 65.4211 51.8424 65.2497 51.1554C65.7301 51.0141 66.2014 50.8681 66.6613 50.7162C75.3631 47.843 81.0244 43.1979 81.0244 38.447C81.0244 33.8917 75.7269 29.4859 67.529 26.6734Z" fill="#53C1DE"/>
<path d="M65.6415 47.6489C65.2266 47.7858 64.8007 47.918 64.3667 48.0463C63.4059 45.0155 62.1093 41.7925 60.523 38.4631C62.037 35.2124 63.2833 32.0309 64.2172 29.0196C64.9935 29.2439 65.7473 29.4799 66.4736 29.7293C73.4977 32.1387 77.7821 35.7018 77.7821 38.447C77.7821 41.3714 73.1548 45.1678 65.6418 47.6489H65.6415ZM62.5241 53.8052C63.2837 57.6291 63.3922 61.0864 62.8889 63.7891C62.4368 66.2176 61.5278 67.8366 60.4038 68.4851C58.0117 69.8651 52.8959 68.0713 47.3794 63.3401C46.7468 62.7978 46.1096 62.2186 45.4706 61.606C47.6095 59.2745 49.7469 56.5641 51.833 53.5544C55.5027 53.23 58.9694 52.6994 62.1133 51.9753C62.2678 52.598 62.4055 53.2083 62.5241 53.8052ZM30.9977 68.2467C28.6607 69.0693 26.7993 69.0927 25.6743 68.4462C23.2799 67.0703 22.2849 61.7573 23.6423 54.6314C23.8038 53.7893 23.9886 52.9518 24.1966 52.1199C27.3056 52.8052 30.7471 53.2983 34.4255 53.5956C36.5253 56.5407 38.7246 59.2478 40.941 61.6184C40.47 62.0725 39.9878 62.515 39.4949 62.9454C36.5499 65.5112 33.5988 67.3311 30.9981 68.2467H30.9977ZM20.049 47.6308C16.3478 46.37 13.2912 44.7316 11.196 42.9438C9.31352 41.3369 8.36285 39.7416 8.36285 38.447C8.36285 35.6928 12.4836 32.1792 19.3563 29.7912C20.2189 29.4928 21.0901 29.2196 21.9688 28.972C22.9188 32.051 24.1647 35.2703 25.6683 38.5257C24.1452 41.8297 22.8815 45.1002 21.9227 48.2153C21.2934 48.0358 20.6687 47.8409 20.049 47.6308ZM23.7193 22.733C22.2926 15.4672 23.2399 9.98651 25.6239 8.61122C28.1635 7.14621 33.7785 9.23525 39.6968 14.4723C40.075 14.807 40.455 15.1576 40.8356 15.5201C38.6306 17.88 36.4514 20.5666 34.3697 23.4946C30.7999 23.8244 27.3825 24.354 24.2409 25.0634C24.0474 24.291 23.8735 23.5138 23.7193 22.7327V22.733ZM56.4607 30.7902C55.7187 29.5128 54.9491 28.2515 54.1526 27.0072C56.5746 27.3118 58.8948 27.7169 61.0736 28.2127C60.4196 30.3021 59.6043 32.4869 58.6442 34.7266C57.9427 33.4001 57.2148 32.0877 56.4607 30.7902ZM43.1088 17.8295C44.6043 19.4441 46.1022 21.2473 47.5755 23.2034C44.5868 23.0626 41.5931 23.062 38.6044 23.2014C40.0791 21.2633 41.5897 19.4629 43.1088 17.8295ZM29.6712 30.8123C28.9265 32.0995 28.2122 33.4039 27.5286 34.7243C26.5843 32.4923 25.7765 30.2978 25.1167 28.1786C27.2824 27.6955 29.5919 27.3008 31.9981 27.0012C31.1926 28.2532 30.4168 29.524 29.6712 30.8123ZM32.0673 50.1236C29.5815 49.8471 27.2371 49.4724 25.072 49.0027C25.7422 46.8461 26.5679 44.6044 27.5323 42.3245C28.2187 43.6459 28.9363 44.951 29.6843 46.2388C30.4475 47.5524 31.2421 48.8477 32.0673 50.1236ZM43.1984 59.2929C41.6616 57.6401 40.1288 55.8122 38.6316 53.846C40.0848 53.903 41.5665 53.9317 43.0725 53.9317C44.6197 53.9317 46.1492 53.8973 47.6545 53.8303C46.1764 55.8323 44.6839 57.6629 43.1984 59.2929ZM58.6751 42.2083C59.6896 44.513 60.5449 46.7426 61.2241 48.8628C59.0231 49.3633 56.6471 49.7664 54.1435 50.0657C54.9458 48.7981 55.7227 47.5147 56.4738 46.2163C57.2373 44.8968 57.9713 43.5604 58.6751 42.2083ZM53.6648 44.602C52.515 46.5926 51.3006 48.5454 50.0234 50.4574C47.7714 50.6177 45.4441 50.7004 43.0725 50.7004C40.7106 50.7004 38.4129 50.6271 36.2002 50.4841C34.8899 48.5767 33.6524 46.6205 32.4906 44.6198C31.3341 42.6297 30.2539 40.5965 29.2523 38.5247C30.2513 36.4523 31.3283 34.4181 32.4808 32.4263V32.427C33.633 30.4348 34.8607 28.487 36.1612 26.5877C38.4186 26.4176 40.7331 26.3286 43.0728 26.3286C45.4229 26.3286 47.7405 26.4183 49.9972 26.5897C51.2846 28.4861 52.5044 30.4271 53.6544 32.4092C54.8109 34.3965 55.9022 36.4208 56.9266 38.4788C55.9128 40.5578 54.8249 42.6002 53.6652 44.602H53.6648ZM60.3541 8.51514C62.8957 9.97613 63.8843 15.8673 62.2873 23.5931C62.1826 24.0964 62.0688 24.5977 61.946 25.0969C58.7971 24.3728 55.3774 23.8338 51.7971 23.499C49.7113 20.5392 47.5503 17.8479 45.3809 15.5185C45.9494 14.9723 46.5314 14.4403 47.1264 13.9229C52.7303 9.06251 57.9677 7.14353 60.3541 8.51514Z" fill="white"/>
<path d="M43.0724 31.6923C46.816 31.6923 49.8504 34.7167 49.8504 38.4472C49.8504 42.178 46.816 45.2024 43.0724 45.2024C39.3292 45.2024 36.2945 42.178 36.2945 38.4472C36.2945 34.7167 39.3292 31.6923 43.0724 31.6923Z" fill="#53C1DE"/>
</svg>
