<svg width="124" height="233" viewBox="0 0 124 233" fill="none" xmlns="http://www.w3.org/2000/svg">
<g clip-path="url(#clip0)">
<path d="M63.1801 155.82C69.9524 155.82 76.6583 157.154 82.9151 159.746C89.1719 162.337 94.8569 166.136 99.6456 170.924C104.434 175.713 108.233 181.398 110.825 187.655C113.416 193.912 114.75 200.618 114.75 207.39C114.75 213.726 112.233 219.803 107.753 224.283C103.273 228.763 97.1961 231.28 90.8601 231.28H35.5001C29.1641 231.28 23.0876 228.763 18.6073 224.283C14.1271 219.803 11.6101 213.726 11.6101 207.39C11.6101 193.713 17.0434 180.596 26.7146 170.924C36.3859 161.253 49.5029 155.82 63.1801 155.82Z" fill="#52C4D3"/>
<path opacity="0.4" d="M75.3501 191.69C89.0001 184.85 84.0601 182 86.7901 161.07C86.7901 161.07 93.2901 164.95 93.3301 164.93C96.0401 166.77 97.8301 170.14 100.15 172.46C104.944 177.246 108.745 182.931 111.337 189.189C113.928 195.448 115.258 202.156 115.25 208.93C115.25 215.53 112.34 219.99 108 224.33C103.66 228.67 100.27 229.63 91.8001 231.07H36.4401C32.2001 231.16 31.8101 230.56 29.6701 229.93C25.5401 228.69 23.2301 226.93 22.5601 222.73C22.0827 220.303 22.1924 217.796 22.8801 215.42C24.3301 211 28.4501 207.54 33.2401 204.75C38.8994 201.54 45.098 199.391 51.5301 198.41L75.3501 191.69Z" fill="#52C4D3"/>
<path d="M17.2701 191.18C17.1575 191.179 17.046 191.158 16.9401 191.12C16.8128 191.078 16.6952 191.012 16.5942 190.924C16.4932 190.836 16.4109 190.729 16.3522 190.608C16.2934 190.488 16.2594 190.357 16.2522 190.223C16.245 190.09 16.2647 189.956 16.3101 189.83C16.6301 188.92 24.3101 167.53 43.6401 161.01C43.7668 160.967 43.9007 160.95 44.0341 160.959C44.1676 160.968 44.2979 161.003 44.4177 161.063C44.5375 161.122 44.6444 161.205 44.7323 161.305C44.8202 161.406 44.8874 161.523 44.9301 161.65C44.9728 161.777 44.9901 161.911 44.981 162.044C44.972 162.177 44.9367 162.308 44.8773 162.428C44.8179 162.547 44.7354 162.654 44.6347 162.742C44.5339 162.83 44.4168 162.897 44.2901 162.94C25.9001 169.14 18.2901 190.29 18.2301 190.5C18.1625 190.7 18.0332 190.874 17.8607 190.996C17.6882 191.118 17.4815 191.183 17.2701 191.18V191.18Z" fill="#B7DFE7"/>
<path d="M114.29 206.05C114.29 209.186 113.672 212.292 112.471 215.189C111.27 218.087 109.51 220.719 107.292 222.936C105.073 225.153 102.439 226.91 99.5409 228.109C96.6425 229.307 93.5364 229.923 90.4001 229.92H35.0001C32.1759 229.922 29.3733 229.428 26.7201 228.46C26.2802 226.38 26.2802 224.23 26.7201 222.15C27.2446 219.761 28.3134 217.526 29.8432 215.618C31.373 213.71 33.3226 212.181 35.5401 211.15C44.1701 207.23 54.0501 211.64 63.5401 212.07C76.7301 212.67 89.5401 204.84 96.4701 193.57C100.087 187.532 102.285 180.752 102.9 173.74C110.288 182.886 114.31 194.293 114.29 206.05Z" fill="#136F82"/>
<path d="M91.3199 232H35.9999C29.3445 231.992 22.9638 229.345 18.2567 224.64C13.5497 219.935 10.9005 213.555 10.8899 206.9C10.8899 205.55 10.9499 204.22 11.0399 202.9C11.0704 202.579 11.2237 202.282 11.4678 202.072C11.7119 201.861 12.028 201.753 12.3499 201.77C12.6728 201.796 12.9726 201.947 13.1841 202.193C13.3957 202.438 13.502 202.757 13.4799 203.08C13.3799 204.34 13.3399 205.61 13.3399 206.9C13.3399 212.913 15.7263 218.679 19.975 222.934C24.2237 227.188 29.9873 229.582 35.9999 229.59H91.3199C97.3307 229.587 103.095 227.2 107.347 222.951C111.599 218.703 113.992 212.941 114 206.93C114.001 194.827 109.644 183.128 101.726 173.975C93.8072 164.822 82.8572 158.827 70.88 157.087C58.9028 155.347 46.6995 157.979 36.5039 164.5C26.3083 171.022 18.8023 180.997 15.3599 192.6C15.3152 192.753 15.2405 192.896 15.1403 193.021C15.04 193.145 14.9161 193.248 14.7757 193.325C14.6353 193.401 14.4813 193.448 14.3223 193.465C14.1634 193.481 14.0029 193.466 13.8499 193.42C13.6935 193.377 13.5471 193.304 13.4193 193.204C13.2916 193.104 13.185 192.98 13.1059 192.838C13.0267 192.697 12.9766 192.541 12.9584 192.38C12.9402 192.219 12.9543 192.056 12.9999 191.9C16.6144 179.744 24.4833 169.295 35.1679 162.464C45.8525 155.633 58.639 152.875 71.1894 154.696C83.7399 156.516 95.2159 162.793 103.519 172.379C111.822 181.964 116.398 194.218 116.41 206.9C116.402 213.553 113.756 219.931 109.053 224.636C104.35 229.341 97.9727 231.989 91.3199 232Z" fill="#000201"/>
<path d="M74.9899 149.89C74.9899 144.008 70.2218 139.24 64.3399 139.24C58.4581 139.24 53.6899 144.008 53.6899 149.89V157.29C53.6899 163.172 58.4581 167.94 64.3399 167.94C70.2218 167.94 74.9899 163.172 74.9899 157.29V149.89Z" fill="#FDC6A2"/>
<path opacity="0.75" d="M74.61 146.78V154.18C74.6191 155.017 74.5148 155.851 74.3 156.66C63.03 157.57 56.79 151.66 53.96 143.14C54.4331 141.823 55.1678 140.615 56.12 139.59C57.5659 138.002 59.4589 136.889 61.5496 136.398C63.6404 135.907 65.8309 136.061 67.8326 136.839C69.8342 137.618 71.5531 138.984 72.763 140.759C73.9728 142.533 74.6167 144.632 74.61 146.78V146.78Z" fill="#E89176"/>
<path d="M90.1001 204.45C93.2702 204.45 95.8401 201.88 95.8401 198.71C95.8401 195.54 93.2702 192.97 90.1001 192.97C86.93 192.97 84.3601 195.54 84.3601 198.71C84.3601 201.88 86.93 204.45 90.1001 204.45Z" fill="#142D34"/>
<path d="M82.3101 205.54C83.2435 205.54 84.0001 204.783 84.0001 203.85C84.0001 202.917 83.2435 202.16 82.3101 202.16C81.3768 202.16 80.6201 202.917 80.6201 203.85C80.6201 204.783 81.3768 205.54 82.3101 205.54Z" fill="#142D34"/>
<path d="M18.1 211.84C17.9905 211.84 17.882 211.82 17.78 211.78C17.5808 211.698 17.4219 211.541 17.3377 211.342C17.2534 211.144 17.2507 210.92 17.33 210.72V210.72L21.8 200.15C21.8405 200.05 21.9005 199.959 21.9765 199.883C22.0525 199.807 22.143 199.746 22.2426 199.705C22.3423 199.664 22.4491 199.644 22.5568 199.644C22.6645 199.645 22.771 199.668 22.87 199.71C23.0707 199.796 23.2293 199.958 23.3117 200.16C23.394 200.362 23.3934 200.588 23.31 200.79L18.83 211.35C18.7684 211.493 18.6668 211.616 18.5373 211.703C18.4078 211.79 18.256 211.837 18.1 211.84V211.84Z" fill="#000201"/>
<path d="M23.45 206.93C23.3437 206.931 23.2384 206.91 23.14 206.87C22.9389 206.79 22.7777 206.633 22.6916 206.435C22.6054 206.236 22.6012 206.012 22.68 205.81V205.81L25.07 200.15C25.1549 199.95 25.3158 199.791 25.5174 199.71C25.719 199.628 25.9447 199.63 26.145 199.715C26.3452 199.8 26.5035 199.961 26.5851 200.162C26.6667 200.364 26.6649 200.59 26.58 200.79L24.19 206.44C24.1277 206.585 24.0245 206.708 23.8931 206.795C23.7616 206.882 23.6076 206.929 23.45 206.93V206.93Z" fill="#000201"/>
<path d="M28.21 97C27.9447 97 27.6904 96.8946 27.5029 96.7071C27.3153 96.5196 27.21 96.2652 27.21 96V81.84C27.21 81.5748 27.3153 81.3204 27.5029 81.1329C27.6904 80.9454 27.9447 80.84 28.21 80.84C28.4752 80.84 28.7295 80.9454 28.9171 81.1329C29.1046 81.3204 29.21 81.5748 29.21 81.84V96C29.21 96.2652 29.1046 96.5196 28.9171 96.7071C28.7295 96.8946 28.4752 97 28.21 97Z" fill="white"/>
<path d="M28.2101 103.56C28.9612 103.56 29.5701 102.736 29.5701 101.72C29.5701 100.704 28.9612 99.88 28.2101 99.88C27.459 99.88 26.8501 100.704 26.8501 101.72C26.8501 102.736 27.459 103.56 28.2101 103.56Z" fill="white"/>
<path d="M64.34 169.09C61.2113 169.087 58.2115 167.843 55.9991 165.631C53.7867 163.419 52.5427 160.419 52.54 157.29V149.89C52.54 146.76 53.7832 143.759 55.9962 141.546C58.2091 139.333 61.2105 138.09 64.34 138.09C67.4696 138.09 70.471 139.333 72.6839 141.546C74.8968 143.759 76.14 146.76 76.14 149.89V157.29C76.1374 160.419 74.8933 163.419 72.681 165.631C70.4686 167.843 67.4688 169.087 64.34 169.09ZM64.34 140.4C61.8239 140.403 59.4117 141.403 57.6325 143.182C55.8534 144.962 54.8527 147.374 54.85 149.89V157.29C54.85 159.81 55.8509 162.226 57.6325 164.008C59.4141 165.789 61.8305 166.79 64.35 166.79C66.8696 166.79 69.286 165.789 71.0676 164.008C72.8491 162.226 73.85 159.81 73.85 157.29V149.89C73.85 148.642 73.6039 147.406 73.1257 146.254C72.6476 145.101 71.9468 144.054 71.0634 143.172C70.1801 142.291 69.1315 141.592 67.9778 141.117C66.8242 140.641 65.588 140.397 64.34 140.4V140.4Z" fill="#000201"/>
<path opacity="0.55" d="M46.6601 145.33C46.9639 145.33 47.2101 145.084 47.2101 144.78C47.2101 144.476 46.9639 144.23 46.6601 144.23C46.3564 144.23 46.1101 144.476 46.1101 144.78C46.1101 145.084 46.3564 145.33 46.6601 145.33Z" fill="white"/>
<path opacity="0.55" d="M54.3501 148.18C54.7533 148.18 55.0801 147.853 55.0801 147.45C55.0801 147.047 54.7533 146.72 54.3501 146.72C53.9469 146.72 53.6201 147.047 53.6201 147.45C53.6201 147.853 53.9469 148.18 54.3501 148.18Z" fill="white"/>
<path d="M47.4025 140.382C47.7883 139.218 47.5613 138.096 46.8955 137.875C46.2297 137.654 45.3773 138.419 44.9915 139.583C44.6057 140.746 44.8327 141.869 45.4985 142.089C46.1642 142.31 47.0167 141.546 47.4025 140.382Z" fill="white"/>
<path opacity="0.55" d="M50.21 141.94C50.6021 141.94 50.92 141.622 50.92 141.23C50.92 140.838 50.6021 140.52 50.21 140.52C49.8179 140.52 49.5 140.838 49.5 141.23C49.5 141.622 49.8179 141.94 50.21 141.94Z" fill="white"/>
<path opacity="0.55" d="M48 142C48.1459 142 48.2858 142.058 48.389 142.161C48.4921 142.264 48.55 142.404 48.55 142.55C48.55 142.696 48.4921 142.836 48.389 142.939C48.2858 143.042 48.1459 143.1 48 143.1C47.8542 143.1 47.7143 143.042 47.6111 142.939C47.508 142.836 47.45 142.696 47.45 142.55C47.4487 142.477 47.462 142.405 47.4891 142.338C47.5163 142.271 47.5568 142.209 47.6081 142.158C47.6595 142.107 47.7206 142.066 47.788 142.039C47.8553 142.012 47.9274 141.999 48 142V142Z" fill="white"/>
<path opacity="0.55" d="M48.76 138.13C49.1632 138.13 49.49 137.803 49.49 137.4C49.49 136.997 49.1632 136.67 48.76 136.67C48.3569 136.67 48.03 136.997 48.03 137.4C48.03 137.803 48.3569 138.13 48.76 138.13Z" fill="white"/>
<path d="M17.8501 82.07L22.9501 82.17C26.1409 82.2409 29.1743 83.5707 31.3886 85.8693C33.6029 88.1678 34.8184 91.2487 34.7701 94.44V94.44C34.7467 96.0202 34.4114 97.5802 33.7834 99.0305C33.1554 100.481 32.2472 101.793 31.1108 102.891C29.9745 103.989 28.6323 104.852 27.1615 105.43C25.6907 106.009 24.1202 106.29 22.5401 106.26V106.26L17.4401 106.16C14.2449 106.094 11.2054 104.767 8.98521 102.468C6.76505 100.169 5.54452 97.0856 5.5901 93.89V93.89C5.61216 92.3064 5.94749 90.7428 6.57674 89.2894C7.206 87.836 8.11674 86.5215 9.25644 85.4218C10.3961 84.3221 11.7423 83.4588 13.2172 82.8818C14.6921 82.3048 16.2667 82.0255 17.8501 82.06V82.06V82.07Z" fill="#FDC6A2"/>
<path d="M22.7499 107.38H22.5199L17.4099 107.28C14.5669 107.23 11.8177 106.254 9.57994 104.5C9.34655 104.312 9.19752 104.038 9.16564 103.74C9.13376 103.442 9.22164 103.143 9.40994 102.91C9.59825 102.677 9.87155 102.528 10.1697 102.496C10.4679 102.464 10.7666 102.552 10.9999 102.74C12.8641 104.191 15.1483 104.998 17.5099 105.04L22.6099 105.14H22.7899C25.6888 105.164 28.4783 104.035 30.545 102.002C32.6116 99.9694 33.7861 97.1988 33.8099 94.3C33.8338 91.4012 32.7052 88.6116 30.6723 86.545C28.6394 84.4783 25.8688 83.3039 22.9699 83.28L17.8699 83.19H17.7199C14.8426 83.1685 12.073 84.2835 10.0132 86.2927C7.95344 88.302 6.76993 91.043 6.71994 93.92C6.69975 95.4005 6.97865 96.8699 7.53994 98.24C7.65133 98.5158 7.64859 98.8246 7.53232 99.0984C7.41605 99.3722 7.19577 99.5886 6.91994 99.7C6.64412 99.8114 6.33534 99.8086 6.06154 99.6924C5.78773 99.5761 5.57133 99.3558 5.45994 99.08C4.63517 97.0635 4.32393 94.8738 4.55415 92.7074C4.78437 90.5409 5.54885 88.4655 6.77899 86.6674C8.00912 84.8693 9.66643 83.4047 11.6022 82.4051C13.538 81.4054 15.6916 80.902 17.8699 80.94H17.9999L22.9999 81.04C26.4809 81.1317 29.7853 82.5921 32.1965 85.1044C34.6076 87.6167 35.9312 90.9782 35.8799 94.46C35.8248 97.9058 34.4172 101.192 31.9608 103.609C29.5044 106.026 26.1962 107.38 22.7499 107.38V107.38Z" fill="#000201"/>
<path d="M19.18 88.32L21.83 88.37C22.6556 88.3843 23.4703 88.5613 24.2274 88.8908C24.9845 89.2204 25.6692 89.696 26.2423 90.2904C26.8154 90.8849 27.2656 91.5865 27.5672 92.3552C27.8688 93.1238 28.0159 93.9444 28 94.77V94.77C27.9606 96.4278 27.2682 98.0029 26.0734 99.1528C24.8786 100.303 23.2781 100.934 21.62 100.91L18.96 100.85C18.1379 100.833 17.3271 100.654 16.5741 100.324C15.821 99.9938 15.1404 99.5184 14.5712 98.925C14.0019 98.3315 13.5551 97.6318 13.2564 96.8657C12.9576 96.0996 12.8127 95.2821 12.83 94.46V94.46C12.8642 92.8058 13.5508 91.2321 14.7403 90.082C15.9297 88.9319 17.5256 88.2985 19.18 88.32V88.32Z" fill="#E89176"/>
<path d="M10.7899 90C11.1877 88.9292 11.9778 88.0498 12.9999 87.54C13.8799 87.2 13.5199 85.75 12.5999 86.11C11.1862 86.7054 10.0599 87.8281 9.45995 89.24C9.08995 90.12 10.3699 90.88 10.7499 90.01L10.7899 90Z" fill="white"/>
<path d="M9.99682 92.8965C10.0928 92.2464 9.74989 91.6572 9.23085 91.5805C8.71181 91.5039 8.21321 91.9688 8.1172 92.619C8.02119 93.2691 8.36413 93.8583 8.88317 93.935C9.40221 94.0116 9.90081 93.5467 9.99682 92.8965Z" fill="white"/>
<path d="M105.54 82.07L110.64 82.17C112.228 82.1973 113.794 82.5372 115.251 83.1702C116.707 83.8031 118.025 84.7168 119.128 85.859C120.231 87.0013 121.098 88.3496 121.68 89.8271C122.262 91.3046 122.548 92.8823 122.52 94.47V94.47C122.496 96.0502 122.161 97.6102 121.533 99.0605C120.905 100.511 119.997 101.823 118.861 102.921C117.724 104.019 116.382 104.882 114.911 105.46C113.44 106.039 111.87 106.32 110.29 106.29H110.24L105.14 106.19C101.946 106.124 98.909 104.796 96.692 102.497C94.475 100.198 93.259 97.1137 93.3099 93.92C93.3333 92.3398 93.6686 90.7798 94.2966 89.3295C94.9245 87.8793 95.8328 86.5674 96.9692 85.4691C98.1055 84.3708 99.4477 83.5078 100.918 82.9296C102.389 82.3515 103.96 82.0695 105.54 82.1V82.1V82.07Z" fill="#FDC6A2"/>
<path d="M110.5 107.41H110.27L105.12 107.31C101.74 107.127 98.5597 105.649 96.24 103.184C93.9202 100.718 92.639 97.4543 92.6622 94.0692C92.6853 90.684 94.0111 87.4378 96.3643 85.0042C98.7176 82.5707 101.917 81.1367 105.3 81C105.386 80.9853 105.474 80.9853 105.56 81L110.66 81.1C112.391 81.1105 114.103 81.4618 115.698 82.1339C117.293 82.8059 118.74 83.7856 119.956 85.0169C121.173 86.2482 122.135 87.707 122.787 89.3101C123.44 90.9132 123.77 92.6292 123.76 94.36C123.749 96.0908 123.398 97.8026 122.726 99.3977C122.054 100.993 121.074 102.44 119.843 103.656C118.612 104.873 117.153 105.835 115.55 106.487C113.947 107.14 112.231 107.471 110.5 107.46V107.41ZM105.33 83.21C103.895 83.1995 102.471 83.4718 101.141 84.0114C99.811 84.551 98.6002 85.3472 97.5779 86.3548C96.5555 87.3623 95.7416 88.5613 95.1826 89.8834C94.6236 91.2054 94.3305 92.6246 94.32 94.06C94.3095 95.4953 94.5818 96.9187 95.1213 98.2488C95.6609 99.5789 96.4572 100.79 97.4647 101.812C98.4722 102.834 99.6713 103.648 100.993 104.207C102.315 104.766 103.735 105.059 105.17 105.07L110.27 105.17C113.166 105.187 115.958 104.092 118.07 102.11C119.104 101.117 119.931 99.9285 120.502 98.6136C121.074 97.2988 121.379 95.8836 121.4 94.45C121.446 91.541 120.337 88.7325 118.316 86.6391C116.296 84.5456 113.529 83.3378 110.62 83.28L105.77 83.19C105.687 83.1999 105.603 83.1999 105.52 83.19L105.33 83.21Z" fill="#000201"/>
<path d="M106.8 88.32L109.45 88.38C111.11 88.4168 112.688 89.1097 113.839 90.3073C114.99 91.5049 115.619 93.1095 115.59 94.77V94.77C115.553 96.4277 114.861 98.0034 113.666 99.1523C112.47 100.301 110.868 100.929 109.21 100.9L106.55 100.85C104.89 100.813 103.313 100.12 102.164 98.9221C101.015 97.7242 100.388 96.1196 100.42 94.46V94.46C100.459 92.8022 101.152 91.2271 102.346 90.0772C103.541 88.9273 105.142 88.2958 106.8 88.32V88.32Z" fill="#E89176"/>
<path d="M97.09 90.81C97.4947 89.7395 98.2922 88.8634 99.32 88.36C100.2 88.02 99.82 86.58 98.92 86.93C97.4995 87.5205 96.3706 88.6495 95.78 90.07C95.41 90.93 96.69 91.69 97.07 90.83L97.09 90.81Z" fill="white"/>
<path d="M96.7731 94.0134C96.8717 93.3628 96.5306 92.7715 96.0111 92.6928C95.4917 92.6141 94.9907 93.0778 94.8921 93.7284C94.7935 94.379 95.1347 94.9703 95.6541 95.049C96.1736 95.1277 96.6745 94.664 96.7731 94.0134Z" fill="white"/>
<path d="M94.5501 25.35C95.0801 25.8 95.5501 26.28 96.0201 26.75C100.19 30.9112 103.496 35.856 105.748 41.2998C107.999 46.7436 109.152 52.5789 109.14 58.47V104.69C109.206 110.573 108.112 116.412 105.921 121.872C103.73 127.333 100.486 132.308 96.372 136.515C92.2584 140.721 87.3565 144.076 81.9462 146.388C76.536 148.701 70.7233 149.924 64.8401 149.99C58.9569 150.056 53.1183 148.962 47.6578 146.771C42.1973 144.58 37.2218 141.336 33.0153 137.222C24.5199 128.914 19.6727 117.572 19.5401 105.69V58.47C19.5307 52.2425 20.8218 46.0816 23.3307 40.3819C25.8397 34.6821 29.5111 29.569 34.1101 25.37C49.0001 11.77 79.6201 11.85 94.5501 25.35Z" fill="#FDC6A2"/>
<path opacity="0.25" d="M109.31 58.28V104.51C109.336 110.397 108.202 116.232 105.972 121.681C103.741 127.13 100.459 132.085 96.3123 136.265C92.1655 140.444 87.2356 143.765 81.8044 146.038C76.3733 148.31 70.5475 149.49 64.66 149.51H64.51V15C75.89 15 87.27 18.38 94.73 25.15C95.26 25.6 95.73 26.08 96.2 26.56C100.369 30.7214 103.674 35.6664 105.924 41.1103C108.174 46.5542 109.325 52.3895 109.31 58.28V58.28Z" fill="#FF9976"/>
<path d="M109.14 58V104.22C109.165 110.108 108.029 115.943 105.798 121.392C103.567 126.841 100.283 131.796 96.1358 135.975C91.9882 140.154 87.0576 143.475 81.6259 145.748C76.1942 148.02 70.3679 149.2 64.48 149.22C63.38 149.22 62.28 149.22 61.2 149.11C84.52 147.45 104.9 127.99 104.82 104.26V58C104.82 46.1 98.07 34.7 89.66 26.29C89.18 25.8 88.66 25.34 88.19 24.89C81.39 18.74 71.36 15.38 61 14.82C73.44 14.12 86.33 17.49 94.52 24.89C95.04 25.34 95.52 25.8 95.97 26.29C100.148 30.4456 103.463 35.3868 105.723 40.829C107.984 46.2713 109.145 52.107 109.14 58V58Z" fill="#FF9976"/>
<path d="M66.57 149.62C65.77 149.68 64.95 149.69 64.13 149.69C39.39 149.62 19.39 129.49 19.47 106.69V60.46C19.47 46.62 24.18 35.21 32.61 26.81C33.09 26.32 33.54 25.81 34.06 25.41C42.06 18.16 54.61 14.78 66.8 15.3C56.26 15.75 45.94 19.13 39 25.41C38.48 25.85 38 26.32 37.55 26.81C33.3773 30.9662 30.0682 35.9068 27.813 41.3473C25.5579 46.7878 24.4013 52.6206 24.41 58.51V104.73C24.3695 116.183 28.7159 127.217 36.5566 135.565C44.3973 143.913 55.137 148.943 66.57 149.62V149.62Z" fill="white"/>
<path d="M29.9201 134.76C29.7408 134.76 29.5638 134.72 29.4014 134.644C29.239 134.568 29.0952 134.457 28.9801 134.32C22.2822 126.258 18.5233 116.159 18.3201 105.68V77.37C18.3201 77.0464 18.4486 76.7361 18.6774 76.5073C18.9062 76.2785 19.2165 76.15 19.5401 76.15C19.8636 76.15 20.1739 76.2785 20.4027 76.5073C20.6315 76.7361 20.7601 77.0464 20.7601 77.37V105.65C20.9549 115.568 24.5166 125.124 30.8601 132.75C31.066 132.999 31.1656 133.319 31.1376 133.641C31.1095 133.963 30.9559 134.26 30.7101 134.47C30.4886 134.656 30.2092 134.758 29.9201 134.76Z" fill="#000201"/>
<path d="M64.3301 150.87C52.9462 150.872 41.9681 146.642 33.5301 139C33.3115 138.779 33.1858 138.482 33.1787 138.171C33.1716 137.86 33.2836 137.558 33.4918 137.327C33.7 137.095 33.9887 136.952 34.2988 136.927C34.6089 136.902 34.917 136.996 35.1601 137.19C43.1602 144.408 53.555 148.399 64.3301 148.39H64.4901C70.2135 148.372 75.8772 147.226 81.1576 145.018C86.438 142.81 91.2317 139.584 95.2649 135.523C99.298 131.462 102.491 126.646 104.663 121.35C106.834 116.055 107.941 110.383 107.92 104.66V58.47C107.911 46.9045 103.323 35.8131 95.1601 27.62L94.8601 27.32C94.5001 26.97 94.1401 26.61 93.7501 26.27C79.1001 13 49.4301 13 34.9401 26.27C30.469 30.3553 26.8988 35.328 24.4573 40.8704C22.0158 46.4129 20.7566 52.4036 20.7601 58.46C20.7614 58.6211 20.7308 58.7808 20.6701 58.9299C20.6094 59.0791 20.5197 59.2148 20.4063 59.3291C20.2929 59.4435 20.1579 59.5343 20.0093 59.5962C19.8606 59.6581 19.7011 59.69 19.5401 59.69V59.69C19.2165 59.69 18.9062 59.5615 18.6774 59.3327C18.4486 59.1039 18.3201 58.7936 18.3201 58.47C18.318 52.0712 19.651 45.7423 22.2338 39.8878C24.8167 34.0334 28.5925 28.7823 33.3201 24.47C48.6201 10.47 79.9501 10.47 95.4001 24.47C95.8201 24.84 96.2101 25.23 96.6101 25.62L96.9101 25.92C105.536 34.5706 110.386 46.284 110.4 58.5V104.72C110.432 116.926 105.618 128.645 97.0155 137.303C88.4131 145.962 76.7255 150.852 64.5201 150.9L64.3301 150.87Z" fill="#000201"/>
<path d="M19.5401 71.53C19.3791 71.53 19.2196 71.4981 19.0709 71.4362C18.9222 71.3743 18.7873 71.2835 18.6739 71.1691C18.5605 71.0548 18.4708 70.9191 18.4101 70.7699C18.3494 70.6208 18.3188 70.4611 18.3201 70.3V65.3C18.3201 64.9764 18.4486 64.6661 18.6774 64.4373C18.9062 64.2085 19.2165 64.08 19.5401 64.08C19.8637 64.08 20.174 64.2085 20.4028 64.4373C20.6316 64.6661 20.7601 64.9764 20.7601 65.3V70.3C20.7601 70.6245 20.6319 70.9358 20.4034 71.1662C20.1749 71.3966 19.8646 71.5274 19.5401 71.53V71.53Z" fill="#000201"/>
<path d="M49.42 92.7C52.557 92.7 55.1 89.4764 55.1 85.5C55.1 81.5235 52.557 78.3 49.42 78.3C46.283 78.3 43.74 81.5235 43.74 85.5C43.74 89.4764 46.283 92.7 49.42 92.7Z" fill="#181828"/>
<path d="M47.38 85.18C48.5343 85.18 49.47 84.1547 49.47 82.89C49.47 81.6253 48.5343 80.6 47.38 80.6C46.2258 80.6 45.29 81.6253 45.29 82.89C45.29 84.1547 46.2258 85.18 47.38 85.18Z" fill="white"/>
<path d="M79.3599 92.7C82.4969 92.7 85.0399 89.4764 85.0399 85.5C85.0399 81.5235 82.4969 78.3 79.3599 78.3C76.223 78.3 73.6799 81.5235 73.6799 85.5C73.6799 89.4764 76.223 92.7 79.3599 92.7Z" fill="#181828"/>
<path d="M77.32 85.18C78.4743 85.18 79.41 84.1547 79.41 82.89C79.41 81.6253 78.4743 80.6 77.32 80.6C76.1657 80.6 75.23 81.6253 75.23 82.89C75.23 84.1547 76.1657 85.18 77.32 85.18Z" fill="white"/>
<path d="M24.42 183.18C24.2362 183.179 24.0563 183.127 23.9 183.03C23.783 182.963 23.6808 182.873 23.5994 182.766C23.5181 182.658 23.4593 182.535 23.4266 182.405C23.3939 182.274 23.388 182.138 23.4092 182.005C23.4304 181.872 23.4783 181.744 23.55 181.63C24.7359 179.7 26.0735 177.868 27.55 176.15C27.7264 175.944 27.9772 175.817 28.2473 175.797C28.5173 175.776 28.7845 175.864 28.99 176.04C29.1956 176.216 29.3226 176.467 29.3433 176.737C29.3639 177.007 29.2764 177.274 29.1 177.48C27.7005 179.111 26.4363 180.853 25.32 182.69C25.2282 182.845 25.096 182.973 24.9376 183.059C24.7791 183.145 24.6003 183.187 24.42 183.18Z" fill="white"/>
<path d="M31.2701 175.55C32.0543 175.55 32.6901 174.914 32.6901 174.13C32.6901 173.346 32.0543 172.71 31.2701 172.71C30.4859 172.71 29.8501 173.346 29.8501 174.13C29.8501 174.914 30.4859 175.55 31.2701 175.55Z" fill="white"/>
<path d="M39.3601 167.47C40.2216 167.47 40.92 166.772 40.92 165.91C40.92 165.048 40.2216 164.35 39.3601 164.35C38.4985 164.35 37.8 165.048 37.8 165.91C37.8 166.772 38.4985 167.47 39.3601 167.47Z" fill="#B7DFE7"/>
<path d="M37.8401 170.03C38.4089 170.03 38.8701 169.569 38.8701 169C38.8701 168.431 38.4089 167.97 37.8401 167.97C37.2712 167.97 36.8101 168.431 36.8101 169C36.8101 169.569 37.2712 170.03 37.8401 170.03Z" fill="#B7DFE7"/>
<path d="M40 52.64H105.4V57.64H45C43.6739 57.64 42.4021 57.1132 41.4645 56.1755C40.5268 55.2379 40 53.9661 40 52.64Z" fill="#FF9976"/>
<path d="M89.1301 218.67H110C110.281 218.67 110.551 218.782 110.75 218.98C110.948 219.179 111.06 219.449 111.06 219.73C111.06 220.011 110.948 220.281 110.75 220.48C110.551 220.678 110.281 220.79 110 220.79H89.1301C88.8489 220.79 88.5793 220.678 88.3805 220.48C88.1818 220.281 88.0701 220.011 88.0701 219.73C88.0701 219.449 88.1818 219.179 88.3805 218.98C88.5793 218.782 88.8489 218.67 89.1301 218.67V218.67Z" fill="#000201"/>
<path d="M79.6 218.67H82.54C82.8212 218.67 83.0908 218.782 83.2896 218.98C83.4884 219.179 83.6 219.449 83.6 219.73C83.6 220.011 83.4884 220.281 83.2896 220.48C83.0908 220.678 82.8212 220.79 82.54 220.79H79.6C79.3189 220.79 79.0493 220.678 78.8505 220.48C78.6517 220.281 78.54 220.011 78.54 219.73C78.54 219.449 78.6517 219.179 78.8505 218.98C79.0493 218.782 79.3189 218.67 79.6 218.67V218.67Z" fill="#000201"/>
<path d="M52.86 105.62H79.73C80.9791 105.62 82.1771 106.116 83.0604 107C83.9437 107.883 84.44 109.081 84.44 110.33V116.48C84.44 121.747 82.3476 126.799 78.6231 130.523C74.8986 134.248 69.8472 136.34 64.58 136.34C59.3128 136.34 54.2613 134.248 50.5368 130.523C46.8124 126.799 44.72 121.747 44.72 116.48V116.48V109.59C44.72 108.529 45.1414 107.512 45.8915 106.762C46.6417 106.011 47.6591 105.59 48.72 105.59L52.86 105.62Z" fill="#AF143B"/>
<path d="M68.71 135.9C63.5529 136.99 58.1741 135.988 53.756 133.113C49.3379 130.238 46.2424 125.727 45.15 120.57C44.867 119.222 44.7229 117.848 44.72 116.47V108.81C44.72 107.961 45.0571 107.147 45.6572 106.547C46.2573 105.947 47.0713 105.61 47.92 105.61H53V116.47C52.998 121.018 54.5571 125.429 57.4165 128.965C60.2759 132.502 64.2625 134.95 68.71 135.9Z" fill="#91052D"/>
<path d="M51.4799 105.61H80.9999C81.449 105.605 81.8946 105.688 82.311 105.856C82.7275 106.024 83.1066 106.273 83.4265 106.588C83.7463 106.903 84.0005 107.279 84.1745 107.693C84.3484 108.107 84.4387 108.551 84.4399 109V117.65H51.4399L51.4799 105.61Z" fill="white"/>
<path d="M51.4799 105.61H80.7499C81.7286 105.61 82.6672 105.999 83.3592 106.691C84.0512 107.383 84.4399 108.321 84.4399 109.3V110.63H51.4399L51.4799 105.61Z" fill="#FFDEDE"/>
<path d="M84.4399 118.75H51.4399C51.1588 118.75 50.8891 118.638 50.6903 118.44C50.4916 118.241 50.3799 117.971 50.3799 117.69V117.69V105.62C50.3799 105.03 50.8599 106.42 51.4399 106.42C52.0199 106.42 52.4999 105.03 52.4999 105.62V116.62H84.3999C84.9799 116.57 83.6299 117 83.6799 117.62C83.7299 118.24 85.1599 118.72 84.5799 118.77H84.3999L84.4399 118.75Z" fill="#181828"/>
<path d="M82.8301 120.08V123.83C78.5601 130.33 76.5501 136.13 68.7501 136.13C66.3801 136.13 64.0101 137.35 61.9401 136.21L61.8301 135.37C61.6622 134.47 61.5785 133.556 61.5801 132.64C61.5766 130.154 62.2205 127.709 63.4484 125.548C64.6763 123.386 66.4458 121.581 68.583 120.31C70.7201 119.04 73.1512 118.348 75.637 118.302C78.1229 118.257 80.5777 118.859 82.7601 120.05L82.8301 120.08Z" fill="#EA3D90"/>
<path d="M61.8799 136.66C61.7057 136.657 61.5378 136.595 61.4033 136.484C61.2689 136.373 61.1761 136.22 61.1399 136.05C60.7214 133.863 60.7914 131.611 61.3449 129.454C61.8983 127.297 62.9216 125.29 64.3415 123.574C65.7614 121.859 67.5427 120.479 69.5582 119.533C71.5736 118.586 73.7733 118.097 75.9999 118.1C78.5086 118.1 80.9773 118.729 83.1799 119.93C83.3468 120.028 83.4691 120.188 83.5212 120.374C83.5733 120.561 83.5512 120.761 83.4594 120.931C83.3676 121.102 83.2133 121.23 83.0288 121.29C82.8444 121.349 82.6441 121.335 82.4699 121.25C80.2083 120.023 77.6446 119.464 75.0774 119.637C72.5102 119.811 70.0451 120.71 67.9693 122.231C65.8935 123.751 64.2924 125.83 63.3524 128.225C62.4124 130.621 62.1723 133.234 62.6599 135.76C62.6952 135.956 62.6521 136.158 62.5398 136.323C62.4276 136.487 62.2553 136.601 62.0599 136.64L61.8799 136.66Z" fill="#181828"/>
<path d="M65.3201 125.76C65.2706 125.76 65.2217 125.75 65.1761 125.731C65.1306 125.712 65.0894 125.684 65.0549 125.648C65.0204 125.613 64.9933 125.571 64.9753 125.525C64.9573 125.479 64.9488 125.429 64.9501 125.38C64.95 125.312 64.971 125.246 65.0101 125.19C66.171 123.618 67.6533 122.31 69.3586 121.355C71.0638 120.4 72.9528 119.819 74.9001 119.65C74.9977 119.644 75.0937 119.676 75.1682 119.74C75.2427 119.803 75.29 119.893 75.3001 119.99C75.3042 120.039 75.2986 120.088 75.2837 120.134C75.2689 120.181 75.2449 120.224 75.2133 120.261C75.1817 120.298 75.1431 120.328 75.0996 120.351C75.0562 120.373 75.0087 120.386 74.9601 120.39C73.1281 120.562 71.3522 121.114 69.7457 122.011C68.1392 122.908 66.7374 124.131 65.6301 125.6C65.5949 125.649 65.5485 125.69 65.4945 125.718C65.4406 125.746 65.3808 125.76 65.3201 125.76Z" fill="#FF7DC7"/>
<path d="M67.4873 125.416C67.9331 124.778 67.9678 124.032 67.5647 123.751C67.1617 123.469 66.4736 123.759 66.0278 124.397C65.5821 125.036 65.5474 125.782 65.9505 126.063C66.3535 126.344 67.0416 126.055 67.4873 125.416Z" fill="#FF7DC7"/>
<path d="M69.22 124.64C69.4741 124.64 69.68 124.434 69.68 124.18C69.68 123.926 69.4741 123.72 69.22 123.72C68.966 123.72 68.76 123.926 68.76 124.18C68.76 124.434 68.966 124.64 69.22 124.64Z" fill="#FF7DC7"/>
<path d="M68.3001 127.09C68.5541 127.09 68.7601 126.884 68.7601 126.63C68.7601 126.376 68.5541 126.17 68.3001 126.17C68.046 126.17 67.8401 126.376 67.8401 126.63C67.8401 126.884 68.046 127.09 68.3001 127.09Z" fill="#FF7DC7"/>
<path d="M64.58 137.56C58.9917 137.552 53.6345 135.329 49.683 131.377C45.7314 127.425 43.5079 122.068 43.5 116.48V109.15C43.5026 107.889 44.0053 106.681 44.8977 105.791C45.7901 104.9 46.9993 104.4 48.26 104.4H80.91C82.1707 104.4 83.3799 104.9 84.2723 105.791C85.1647 106.681 85.6673 107.889 85.67 109.15V116.48C85.6621 122.07 83.4372 127.429 79.4835 131.381C75.5298 135.332 70.1701 137.555 64.58 137.56ZM48.26 106.84C47.6561 106.853 47.0813 107.102 46.6588 107.534C46.2364 107.966 45.9999 108.546 46 109.15V116.48C45.9425 118.964 46.3819 121.433 47.2926 123.745C48.2032 126.056 49.5667 128.162 51.3028 129.939C53.0389 131.715 55.1126 133.127 57.4022 134.091C59.6917 135.055 62.1508 135.552 64.635 135.552C67.1192 135.552 69.5783 135.055 71.8678 134.091C74.1574 133.127 76.2311 131.715 77.9672 129.939C79.7033 128.162 81.0668 126.056 81.9774 123.745C82.8881 121.433 83.3275 118.964 83.27 116.48V109.15C83.2674 108.538 83.0231 107.952 82.5905 107.519C82.1579 107.087 81.5718 106.843 80.96 106.84H48.26Z" fill="#000201"/>
<path d="M66.1099 107.14C65.8919 107.151 65.6761 107.091 65.4955 106.968C65.3149 106.845 65.1795 106.667 65.1099 106.46C64.0928 103.794 63.4892 100.988 63.3199 98.14V91.14C63.3014 90.8589 63.3952 90.5819 63.5809 90.37C63.7666 90.158 64.0288 90.0286 64.3099 90.01C64.5911 89.9914 64.8681 90.0853 65.08 90.271C65.2919 90.4566 65.4214 90.7189 65.4399 91C65.45 91.0596 65.45 91.1204 65.4399 91.18V98.09C65.6107 100.715 66.1702 103.3 67.0999 105.76C67.1974 106.02 67.1879 106.308 67.0736 106.561C66.9593 106.814 66.7494 107.011 66.4899 107.11C66.3664 107.144 66.2374 107.154 66.1099 107.14Z" fill="#000201"/>
<path d="M24.4501 90.84H24.4401C23.8326 90.84 23.3401 91.3325 23.3401 91.94V101.65C23.3401 102.258 23.8326 102.75 24.4401 102.75H24.4501C25.0576 102.75 25.5501 102.258 25.5501 101.65V91.94C25.5501 91.3325 25.0576 90.84 24.4501 90.84Z" fill="white"/>
<path d="M104.42 65.47H104.41C103.803 65.47 103.31 65.9625 103.31 66.57V76.28C103.31 76.8875 103.803 77.38 104.41 77.38H104.42C105.028 77.38 105.52 76.8875 105.52 76.28V66.57C105.52 65.9625 105.028 65.47 104.42 65.47Z" fill="#FF9976"/>
<path d="M31.6901 67.75C31.6901 66.7448 30.8752 65.93 29.8701 65.93C28.8649 65.93 28.05 66.7448 28.05 67.75V83.76C28.05 84.7652 28.8649 85.58 29.8701 85.58C30.8752 85.58 31.6901 84.7652 31.6901 83.76V67.75Z" fill="#FFE8DC"/>
<path d="M84 14.68H59.18C56.0096 10.4979 51.9141 7.10651 47.2143 4.77136C42.5145 2.4362 37.3379 1.22069 32.09 1.22H1.21997C1.21997 25.9 14.06 53.1 45.43 52.8H105.88C107.092 52.8006 108.288 52.5219 109.375 51.9855C110.462 51.4491 111.411 50.6695 112.148 49.7072C112.885 48.7449 113.39 47.6257 113.625 46.4365C113.859 45.2473 113.816 44.0201 113.5 42.85C109.58 28.44 97.86 14.68 84 14.68Z" fill="#E89176"/>
<path opacity="0.4" d="M50.82 7.58C37.64 34.33 5.63997 30 2.80997 16.3C3.25997 13.77 1.21997 15.14 1.21997 1.22H32.1C42.36 1.22 44.18 2.53 50.82 7.58Z" fill="#FFDDD7"/>
<path d="M100.37 20C106.37 24.25 110.82 34.45 112.67 43.73C112.878 44.7859 112.85 45.8748 112.587 46.9184C112.324 47.962 111.833 48.9344 111.15 49.7655C110.466 50.5965 109.606 51.2657 108.633 51.7247C107.659 52.1837 106.596 52.4212 105.52 52.42H43.38C29.67 52.42 10.82 42.81 8.26001 29.51C16.12 35.69 25.85 43.12 35.85 43.09H96.72C105.72 43.09 106.81 27.23 100.83 20.46L100.37 19.97" fill="#CE7057"/>
<path d="M26.6699 3.84H10.4899C9.47923 3.84 8.65991 4.65932 8.65991 5.67V5.69C8.65991 6.70068 9.47923 7.52 10.4899 7.52H26.6699C27.6806 7.52 28.4999 6.70068 28.4999 5.69V5.67C28.4999 4.65932 27.6806 3.84 26.6699 3.84Z" fill="#FFDDD7"/>
<path d="M46.28 8.24C46.066 8.24058 45.8533 8.20682 45.65 8.14L39.93 6.14C36.9879 5.11632 33.8951 4.59241 30.78 4.59H5.77998C5.28005 4.62447 4.78689 4.45894 4.40901 4.12982C4.03112 3.80069 3.79946 3.33493 3.76498 2.835C3.7305 2.33506 3.89603 1.84191 4.22516 1.46402C4.55429 1.08614 5.02005 0.854475 5.51998 0.819997H30.78C34.3128 0.806345 37.8225 1.39129 41.16 2.55L46.88 4.55C47.2909 4.70338 47.6357 4.99493 47.8553 5.37468C48.0749 5.75443 48.1555 6.19872 48.0834 6.6314C48.0113 7.06408 47.7909 7.4582 47.46 7.74621C47.1292 8.03422 46.7085 8.19819 46.27 8.21L46.28 8.24Z" fill="white"/>
<path d="M105.35 54H45.43C31.3 54 20.1301 49.24 12.2201 40C12.1156 39.8779 12.0363 39.7364 11.9866 39.5836C11.9369 39.4308 11.9178 39.2697 11.9303 39.1095C11.9428 38.9494 11.9868 38.7932 12.0597 38.65C12.1326 38.5068 12.2329 38.3794 12.3551 38.275C12.4772 38.1706 12.6187 38.0913 12.7715 38.0416C12.9242 37.9918 13.0853 37.9727 13.2455 37.9852C13.4057 37.9978 13.5618 38.0417 13.705 38.1146C13.8482 38.1875 13.9756 38.2879 14.0801 38.41C21.5001 47.12 32.08 51.55 45.43 51.59H105.35C106.468 51.5915 107.573 51.3436 108.583 50.8645C109.593 50.3853 110.484 49.6868 111.19 48.82C111.878 47.9982 112.372 47.0324 112.637 45.9939C112.902 44.9555 112.93 43.8709 112.72 42.82C110.84 33.28 104.6 17.1 83.9301 15.87H59.18C58.9863 15.8744 58.7944 15.8321 58.6203 15.7469C58.4463 15.6616 58.2953 15.5358 58.18 15.38C55.114 11.3559 51.1638 8.09069 46.6348 5.83656C42.1057 3.58242 37.119 2.39978 32.0601 2.38H2.45005C2.50243 7.20214 3.02152 12.0079 4.00005 16.73C4.06768 17.0469 4.00664 17.3778 3.83036 17.6497C3.65407 17.9216 3.37698 18.1124 3.06005 18.18C2.74312 18.2476 2.4123 18.1866 2.14037 18.0103C1.86844 17.834 1.67768 17.5569 1.61005 17.24C0.519571 11.9702 -0.0199966 6.60137 5.03729e-05 1.22C5.03729e-05 0.896436 0.128586 0.586124 0.35738 0.35733C0.586174 0.128535 0.896486 0 1.22005 0H32.09C37.4201 0.0140104 42.6782 1.23076 47.4726 3.55956C52.267 5.88836 56.474 9.26916 59.78 13.45H84.0001C100.36 14.45 111.68 24.96 115.11 42.36C115.392 43.7583 115.359 45.2018 115.013 46.5857C114.667 47.9695 114.017 49.2589 113.11 50.36C112.167 51.504 110.982 52.424 109.64 53.0536C108.298 53.6831 106.832 54.0064 105.35 54Z" fill="#000201"/>
<path d="M9.00004 34.64C8.79289 34.6264 8.59256 34.5606 8.41771 34.4486C8.24285 34.3367 8.09917 34.1824 8.00004 34C6.41036 31.319 5.07136 28.497 4.00004 25.57C3.89815 25.2686 3.91804 24.9393 4.05546 24.6524C4.19288 24.3654 4.43696 24.1435 4.73565 24.0339C5.03435 23.9244 5.36403 23.9358 5.6544 24.0659C5.94477 24.1959 6.17286 24.4342 6.29004 24.73C7.29652 27.5076 8.5586 30.1857 10.06 32.73C10.1427 32.8676 10.1972 33.0202 10.2203 33.179C10.2434 33.3378 10.2347 33.4996 10.1947 33.655C10.1547 33.8105 10.0842 33.9564 9.98723 34.0843C9.89028 34.2122 9.76886 34.3195 9.63004 34.4C9.44813 34.5401 9.22904 34.6236 9.00004 34.64V34.64Z" fill="#000201"/>
<path d="M94.0899 47.49C96.3874 47.49 98.2499 45.6275 98.2499 43.33C98.2499 41.0325 96.3874 39.17 94.0899 39.17C91.7924 39.17 89.9299 41.0325 89.9299 43.33C89.9299 45.6275 91.7924 47.49 94.0899 47.49Z" fill="#CE7057"/>
<path d="M86.76 41.74C87.743 41.74 88.54 40.9431 88.54 39.96C88.54 38.9769 87.743 38.18 86.76 38.18C85.7769 38.18 84.98 38.9769 84.98 39.96C84.98 40.9431 85.7769 41.74 86.76 41.74Z" fill="#CE7057"/>
<path d="M12.99 10.13C13.973 10.13 14.77 9.33307 14.77 8.35001C14.77 7.36694 13.973 6.57001 12.99 6.57001C12.0069 6.57001 11.21 7.36694 11.21 8.35001C11.21 9.33307 12.0069 10.13 12.99 10.13Z" fill="#FFDDD7"/>
<path d="M44.08 50.58C48.0177 50.58 51.2099 47.3878 51.2099 43.45C51.2099 39.5122 48.0177 36.32 44.08 36.32C40.1422 36.32 36.95 39.5122 36.95 43.45C36.95 47.3878 40.1422 50.58 44.08 50.58Z" fill="#CE7057"/>
</g>
<defs>
<clipPath id="clip0">
<rect width="123.64" height="232.03" fill="white"/>
</clipPath>
</defs>
</svg>
