<svg width="89" height="89" viewBox="0 0 89 89" fill="none" xmlns="http://www.w3.org/2000/svg">
<path d="M36.1562 19.4688C36.1562 17.8 35.0437 16.6875 33.375 16.6875H27.8125C26.1437 16.6875 25.0312 17.8 25.0312 19.4688C25.0312 21.1375 26.1437 22.25 27.8125 22.25H33.375C35.0437 22.25 36.1562 21.1375 36.1562 19.4688Z" fill="black"/>
<path d="M75.0938 33.375H55.625V13.9062C55.625 9.17812 52.0094 5.5625 47.2812 5.5625H13.9062C9.17812 5.5625 5.5625 9.17812 5.5625 13.9062V75.0938C5.5625 79.8219 9.17812 83.4375 13.9062 83.4375H33.375C35.0438 83.4375 36.1562 82.325 36.1562 80.6562C36.1562 78.9875 35.0438 77.875 33.375 77.875H13.9062C12.2375 77.875 11.125 76.7625 11.125 75.0938V13.9062C11.125 12.2375 12.2375 11.125 13.9062 11.125H47.2812C48.95 11.125 50.0625 12.2375 50.0625 13.9062V33.375H41.7188C36.9906 33.375 33.375 36.9906 33.375 41.7188V63.9688C33.375 68.6969 36.9906 72.3125 41.7188 72.3125H50.0625V77.875H44.5C42.8312 77.875 41.7188 78.9875 41.7188 80.6562C41.7188 82.325 42.8312 83.4375 44.5 83.4375H72.3125C73.9812 83.4375 75.0938 82.325 75.0938 80.6562C75.0938 78.9875 73.9812 77.875 72.3125 77.875H66.75V72.3125H75.0938C79.8219 72.3125 83.4375 68.6969 83.4375 63.9688V41.7188C83.4375 36.9906 79.8219 33.375 75.0938 33.375ZM61.1875 77.875H55.625V72.3125H61.1875V77.875ZM77.875 63.9688C77.875 65.6375 76.7625 66.75 75.0938 66.75H41.7188C40.05 66.75 38.9375 65.6375 38.9375 63.9688V41.7188C38.9375 40.05 40.05 38.9375 41.7188 38.9375H75.0938C76.7625 38.9375 77.875 40.05 77.875 41.7188V63.9688Z" fill="black"/>
</svg>
